<?xml version="1.0" encoding="UTF-8" standalone="no"?>
<!DOCTYPE svg PUBLIC "-//W3C//DTD SVG 1.1//EN" "http://www.w3.org/Graphics/SVG/1.1/DTD/svg11.dtd">
<svg xmlns="http://www.w3.org/2000/svg" version="1.1" viewBox="0 0 1028 1020" width="1028.0pt" height="1020.0pt">
<path d="M 0.00 0.00 L 1028.00 0.00 L 1028.00 1020.00 L 0.00 1020.00 L 0.00 0.00 Z" fill="#fcfbf8" />
<path d="M 183.00 1.23 C 402.33 1.29 621.67 1.25 841.00 1.25 C 846.34 1.31 851.89 0.89 857.09 1.69 C 865.42 2.90 873.83 4.06 882.03 5.97 C 894.61 9.37 906.62 12.74 918.31 18.68 C 925.20 22.32 932.20 25.15 938.55 29.45 C 949.52 36.31 960.66 43.99 969.54 53.46 C 976.15 60.29 983.21 66.42 988.85 74.13 C 994.53 80.77 998.70 88.28 1003.39 95.59 C 1009.33 106.20 1014.24 117.31 1018.27 128.77 C 1020.94 138.06 1023.89 147.63 1025.27 157.19 C 1025.70 162.54 1026.88 167.66 1026.80 173.00 C 1026.72 182.33 1026.75 191.67 1026.74 201.00 C 1026.78 416.67 1026.72 632.35 1026.77 848.02 C 1026.27 854.33 1025.37 860.73 1024.41 867.00 C 1022.36 880.93 1017.72 893.55 1012.50 906.53 C 1010.15 911.46 1007.61 916.31 1005.17 921.20 C 998.46 933.60 990.20 945.27 980.74 955.72 C 975.62 962.20 969.71 968.15 963.13 973.16 C 956.30 978.47 949.90 984.28 942.54 988.55 C 938.35 991.01 934.22 993.59 930.00 996.00 C 916.98 1003.16 903.23 1008.06 889.03 1012.28 C 877.19 1015.14 865.17 1017.19 853.00 1017.96 C 845.99 1019.26 839.08 1018.71 832.00 1018.79 C 617.33 1018.79 402.66 1018.77 188.00 1018.81 C 184.60 1018.81 181.36 1018.00 178.00 1017.69 C 172.60 1017.51 167.33 1017.65 162.02 1016.39 C 151.64 1014.92 141.47 1012.60 131.45 1009.52 C 122.59 1006.79 114.33 1002.93 105.80 999.35 C 90.12 991.30 75.50 981.45 62.38 969.67 C 57.21 965.67 52.85 961.26 48.86 956.09 C 37.41 943.42 27.62 929.10 20.35 913.63 C 11.15 896.35 5.37 877.17 2.77 857.80 C 2.30 850.79 0.78 844.06 1.21 837.00 C 1.28 619.68 1.21 402.33 1.24 185.00 C 1.18 179.62 0.97 174.32 1.96 169.00 C 3.81 152.06 7.27 135.58 13.92 119.84 C 16.18 114.78 18.12 109.55 20.61 104.60 C 24.55 97.61 28.41 90.60 33.06 84.03 C 38.05 76.10 44.23 69.30 50.12 62.07 C 53.49 58.16 57.23 54.49 61.25 51.25 C 78.77 35.81 99.00 22.14 120.98 13.97 C 133.75 8.73 147.18 4.98 160.81 2.76 C 168.27 2.23 175.48 0.75 183.00 1.23 Z" fill="#1dbbbe" />
<path d="M 550.00 65.02 C 606.99 70.17 663.77 87.85 711.98 119.03 C 728.40 129.91 743.85 142.32 757.96 156.06 C 768.83 167.15 779.59 178.75 788.71 191.34 C 798.87 204.49 807.46 219.06 815.31 233.69 C 827.88 257.95 836.69 284.28 843.14 310.78 C 856.49 313.01 869.09 318.84 879.56 327.40 C 899.78 343.81 912.32 368.94 913.01 395.00 C 913.00 413.00 912.99 431.00 913.01 449.00 C 913.10 457.09 911.31 465.29 909.00 473.01 C 899.09 505.40 869.95 530.86 836.19 535.24 C 835.96 528.82 836.02 522.41 836.03 515.99 C 836.21 512.24 834.20 508.91 831.25 506.74 C 826.60 503.28 820.30 503.41 814.93 504.81 C 796.08 510.35 777.07 515.37 758.13 520.59 C 757.99 484.40 758.14 448.20 758.06 412.00 C 758.62 362.02 742.15 311.87 711.98 272.01 C 703.22 260.77 694.02 250.10 683.15 240.83 C 658.95 218.97 629.79 202.80 598.49 193.70 C 579.79 188.22 560.46 185.22 541.00 184.54 C 527.01 184.88 513.00 185.09 499.00 184.82 C 486.35 184.04 473.56 185.29 461.00 186.82 C 400.48 195.18 345.08 230.37 310.77 280.77 C 291.69 308.31 279.08 340.56 273.35 373.52 C 270.02 392.08 270.94 411.97 270.76 431.00 C 270.77 538.33 270.70 645.67 270.79 753.00 C 270.70 766.67 271.49 780.16 274.85 793.45 C 283.00 826.08 302.09 856.62 329.13 876.84 C 355.46 896.73 388.18 906.37 421.00 906.62 C 478.34 906.64 535.66 906.60 593.00 906.64 C 603.37 906.52 613.84 906.92 624.17 906.03 C 638.93 904.60 653.40 901.73 667.13 896.01 C 704.44 881.01 733.96 850.50 749.46 813.57 C 760.56 814.93 771.49 813.76 782.22 810.72 C 774.26 836.02 761.08 859.55 743.18 879.16 C 721.61 902.91 693.61 920.44 662.97 929.86 C 651.52 933.15 639.84 935.57 627.99 936.86 C 614.10 938.05 599.94 937.67 586.00 937.75 C 531.35 937.67 476.62 937.84 422.00 937.63 C 398.06 937.83 374.32 933.88 352.08 924.91 C 313.75 909.60 281.34 880.44 262.05 843.95 C 253.26 827.36 246.54 809.37 243.37 790.84 C 240.80 777.03 240.27 763.02 240.32 749.00 C 240.29 713.33 240.34 677.67 240.26 642.00 C 240.39 603.10 240.03 564.18 240.42 525.29 C 233.13 528.58 225.87 531.55 218.02 533.25 C 204.13 536.35 189.55 535.48 176.09 530.92 C 158.55 525.00 143.41 513.36 132.58 498.43 C 123.62 486.01 118.08 471.24 116.57 456.00 C 115.84 449.27 116.03 442.75 116.00 436.00 C 116.00 425.00 116.00 414.00 116.00 403.00 C 115.84 392.46 116.84 381.69 119.64 371.50 C 124.46 355.31 133.61 340.52 146.16 329.19 C 156.35 320.02 169.22 313.11 182.79 310.73 C 188.15 289.65 194.43 269.19 203.25 249.27 C 221.41 207.15 250.00 169.54 285.57 140.60 C 310.21 120.18 337.93 103.71 367.49 91.48 C 424.91 67.45 488.22 59.98 550.00 65.02 Z" fill="#20395f" />
<path d="M 513.00 109.00 C 566.61 107.85 621.20 120.07 668.55 145.45 C 695.96 160.46 721.49 180.39 741.45 204.53 C 768.60 235.78 786.88 273.50 796.92 313.53 C 788.18 315.53 781.48 319.67 775.26 326.03 C 758.32 277.97 727.26 235.22 686.99 204.03 C 671.61 192.36 654.87 182.57 637.21 174.78 C 626.87 170.28 616.49 166.23 605.52 163.54 C 585.68 158.27 565.52 154.87 545.00 153.97 C 528.00 153.88 511.00 154.05 494.00 153.87 C 436.75 153.21 379.67 173.22 335.16 209.19 C 304.26 234.58 279.10 267.08 262.49 303.48 C 258.82 311.33 255.98 319.40 252.69 327.40 C 249.68 324.26 246.86 321.15 243.05 318.92 C 239.06 316.35 234.65 314.93 230.12 313.65 C 231.80 306.69 233.70 299.80 236.04 293.03 C 241.42 277.63 247.49 262.68 255.42 248.40 C 268.57 224.09 286.00 202.02 306.41 183.40 C 336.23 155.75 372.27 136.06 410.98 123.93 C 433.72 116.73 457.45 112.33 481.20 110.26 C 491.81 109.68 502.35 108.71 513.00 109.00 Z" fill="#1dbbbe" />
<path d="M 499.00 184.82 C 513.00 185.09 527.01 184.88 541.00 184.54 C 560.46 185.22 579.79 188.22 598.49 193.70 C 629.79 202.80 658.95 218.97 683.15 240.83 C 694.02 250.10 703.22 260.77 711.98 272.01 C 742.15 311.87 758.62 362.02 758.06 412.00 C 758.14 448.20 757.99 484.40 758.13 520.59 C 732.46 527.72 706.85 535.04 681.17 542.08 C 670.00 545.09 658.84 548.23 647.79 551.65 C 638.38 554.55 630.17 562.90 629.36 573.00 C 629.00 579.31 629.49 585.67 629.32 592.00 C 629.40 643.59 629.25 695.18 629.40 746.76 C 601.43 735.15 567.42 740.37 544.97 760.94 C 533.45 771.19 525.96 785.53 524.95 800.99 C 524.13 813.66 528.70 826.46 536.98 836.03 C 547.95 848.61 565.51 855.05 582.00 854.34 C 598.33 854.15 614.34 850.11 628.07 841.10 C 642.28 831.64 653.45 816.40 656.85 799.55 C 658.27 793.35 657.97 787.29 657.95 781.00 C 657.92 734.73 657.99 688.18 657.95 641.99 C 657.97 639.94 658.24 638.16 659.61 636.57 C 661.82 633.51 665.76 633.16 669.11 632.16 C 698.80 624.08 728.45 615.81 758.04 607.36 C 758.14 639.29 758.01 671.22 758.07 703.15 C 744.02 705.18 730.48 712.61 719.82 721.81 C 710.17 730.57 703.06 742.95 701.47 755.98 C 699.99 765.32 701.80 775.49 705.96 783.95 C 714.33 800.58 731.39 810.82 749.46 813.57 C 733.96 850.50 704.44 881.01 667.13 896.01 C 653.40 901.73 638.93 904.60 624.17 906.03 C 613.84 906.92 603.37 906.52 593.00 906.64 C 535.66 906.60 478.34 906.64 421.00 906.62 C 388.18 906.37 355.46 896.73 329.13 876.84 C 302.09 856.62 283.00 826.08 274.85 793.45 C 271.49 780.16 270.70 766.67 270.79 753.00 C 270.70 645.67 270.77 538.33 270.76 431.00 C 270.94 411.97 270.02 392.08 273.35 373.52 C 279.08 340.56 291.69 308.31 310.77 280.77 C 345.08 230.37 400.48 195.18 461.00 186.82 C 473.56 185.29 486.35 184.04 499.00 184.82 Z" fill="#fcfbf8" />
<path d="M 413.51 357.85 C 423.37 356.77 433.39 360.58 439.33 368.66 C 447.77 379.29 446.70 395.55 437.03 405.02 C 427.66 414.72 411.03 415.77 400.31 407.74 C 389.12 399.97 386.40 383.39 392.76 371.74 C 396.78 364.06 405.00 358.89 413.51 357.85 Z" fill="#20395f" />
<path d="M 609.52 357.82 C 619.06 356.84 629.33 361.15 634.89 369.06 C 643.10 380.46 640.94 398.04 629.95 406.89 C 620.58 414.79 605.87 415.19 595.92 408.14 C 588.48 403.09 584.24 393.88 584.27 385.00 C 584.45 378.77 586.68 372.50 590.68 367.69 C 595.17 361.99 602.34 358.45 609.52 357.82 Z" fill="#20395f" />
<path d="M 442.86 461.06 C 448.36 462.95 450.74 467.50 454.66 471.38 C 468.18 484.87 486.31 492.40 505.19 494.27 C 513.53 495.36 521.71 494.53 529.98 493.38 C 548.15 490.28 565.58 481.85 577.71 467.72 C 580.77 464.09 584.12 461.09 589.00 460.41 C 597.40 458.80 606.05 465.34 606.31 473.99 C 606.86 480.12 603.79 484.61 599.96 488.99 C 587.42 503.06 571.15 514.29 553.18 520.18 C 535.97 526.27 517.89 527.42 499.81 525.80 C 476.98 523.11 455.21 513.22 438.12 497.87 C 433.23 493.27 427.99 488.12 424.74 482.19 C 421.83 476.98 422.39 469.93 426.40 465.43 C 430.44 460.60 436.94 458.93 442.86 461.06 Z" fill="#20395f" />
<path d="M 831.25 506.74 C 834.20 508.91 836.21 512.24 836.03 515.99 C 836.02 522.41 835.96 528.82 836.19 535.24 C 836.43 564.83 836.13 594.41 836.43 624.00 C 836.22 663.64 836.40 703.36 836.45 743.00 C 836.34 749.07 836.32 755.51 834.35 761.29 C 831.41 770.22 827.18 778.84 821.03 786.01 C 810.79 797.83 797.37 806.64 782.22 810.72 C 771.49 813.76 760.56 814.93 749.46 813.57 C 731.39 810.82 714.33 800.58 705.96 783.95 C 701.80 775.49 699.99 765.32 701.47 755.98 C 703.06 742.95 710.17 730.57 719.82 721.81 C 730.48 712.61 744.02 705.18 758.07 703.15 C 768.14 701.92 778.07 701.23 788.15 702.82 C 795.23 703.79 801.72 706.33 808.41 708.67 C 808.40 673.47 808.43 638.21 808.43 603.00 C 808.39 600.22 808.26 597.45 808.14 594.68 C 806.23 594.35 804.42 594.10 802.52 594.67 C 797.76 596.00 792.99 597.26 788.24 598.63 C 778.24 601.76 768.08 604.36 758.04 607.36 C 728.45 615.81 698.80 624.08 669.11 632.16 C 665.76 633.16 661.82 633.51 659.61 636.57 C 658.24 638.16 657.97 639.94 657.95 641.99 C 657.99 688.18 657.92 734.73 657.95 781.00 C 657.97 787.29 658.27 793.35 656.85 799.55 C 653.45 816.40 642.28 831.64 628.07 841.10 C 614.34 850.11 598.33 854.15 582.00 854.34 C 565.51 855.05 547.95 848.61 536.98 836.03 C 528.70 826.46 524.13 813.66 524.95 800.99 C 525.96 785.53 533.45 771.19 544.97 760.94 C 567.42 740.37 601.43 735.15 629.40 746.76 C 629.25 695.18 629.40 643.59 629.32 592.00 C 629.49 585.67 629.00 579.31 629.36 573.00 C 630.17 562.90 638.38 554.55 647.79 551.65 C 658.84 548.23 670.00 545.09 681.17 542.08 C 706.85 535.04 732.46 527.72 758.13 520.59 C 777.07 515.37 796.08 510.35 814.93 504.81 C 820.30 503.41 826.60 503.28 831.25 506.74 Z" fill="#8550cc" />
<path d="M 802.52 594.67 C 804.42 594.10 806.23 594.35 808.14 594.68 C 808.26 597.45 808.39 600.22 808.43 603.00 C 808.43 638.21 808.40 673.47 808.41 708.67 C 801.72 706.33 795.23 703.79 788.15 702.82 C 788.15 668.09 788.00 633.36 788.24 598.63 C 792.99 597.26 797.76 596.00 802.52 594.67 Z" fill="#1dbbbe" />
<path d="M 788.24 598.63 C 788.00 633.36 788.15 668.09 788.15 702.82 C 778.07 701.23 768.14 701.92 758.07 703.15 C 758.01 671.22 758.14 639.29 758.04 607.36 C 768.08 604.36 778.24 601.76 788.24 598.63 Z" fill="#20395f" />
<path d="M 352.48 644.66 C 361.71 641.62 372.16 647.38 374.10 656.97 C 376.64 666.71 369.38 678.00 359.01 678.31 C 350.45 679.03 342.85 672.13 341.28 663.99 C 339.68 655.84 344.48 647.19 352.48 644.66 Z" fill="#20395f" />
<path d="M 431.17 644.11 C 436.95 642.76 442.92 644.83 447.11 648.88 C 451.75 653.44 453.18 660.92 450.98 666.98 C 448.24 675.57 437.39 680.54 429.12 676.88 C 421.56 674.10 416.69 665.99 418.20 658.00 C 419.16 651.24 424.57 645.64 431.17 644.11 Z" fill="#20395f" />
<path d="M 508.48 644.61 C 512.83 643.60 517.69 644.21 521.59 646.42 C 526.37 649.25 529.33 654.53 530.05 659.95 C 530.70 669.16 523.32 677.75 514.02 678.18 C 505.11 679.05 496.85 671.94 496.29 663.02 C 495.23 654.76 500.20 646.53 508.48 644.61 Z" fill="#20395f" />
<path d="M 585.48 644.71 C 589.89 643.63 594.82 644.14 598.81 646.34 C 605.57 650.21 608.89 658.86 606.30 666.23 C 604.23 672.89 597.95 677.65 591.04 678.14 C 581.65 679.11 572.84 670.36 573.40 660.98 C 573.21 653.38 578.07 646.60 585.48 644.71 Z" fill="#20395f" />
<path d="M 352.49 714.70 C 358.66 712.99 365.31 714.54 369.65 719.35 C 374.95 724.44 375.50 732.88 372.19 739.17 C 369.58 744.07 364.40 747.05 359.00 747.78 C 350.33 748.23 341.81 741.88 340.80 733.04 C 339.61 724.80 344.56 717.12 352.49 714.70 Z" fill="#20395f" />
<path d="M 430.50 714.74 C 435.86 713.36 441.73 714.38 445.95 718.07 C 451.21 722.41 453.46 729.67 451.07 736.15 C 448.90 743.51 441.37 747.94 433.97 747.93 C 423.96 747.28 415.97 737.03 418.41 727.17 C 419.90 720.96 424.40 716.49 430.50 714.74 Z" fill="#20395f" />
<path d="M 508.45 714.58 C 513.35 713.37 518.70 714.21 522.79 717.21 C 528.49 721.10 531.28 728.58 529.30 735.23 C 527.60 741.81 521.67 746.74 515.01 747.71 C 506.50 748.56 497.71 742.82 496.52 734.02 C 494.94 725.25 499.89 717.03 508.45 714.58 Z" fill="#20395f" />
</svg>