<?xml version="1.0" encoding="UTF-8" standalone="no"?>
<!DOCTYPE svg PUBLIC "-//W3C//DTD SVG 1.1//EN"
 "http://www.w3.org/Graphics/SVG/1.1/DTD/svg11.dtd">
<!-- Generated by graphviz version 14.0.0 (20250921.2048)
 -->
<!-- Title: MusicAssistantPlayer Pages: 1 -->
<svg width="3483pt" height="752pt"
 viewBox="0.00 0.00 3483.00 752.00" xmlns="http://www.w3.org/2000/svg" xmlns:xlink="http://www.w3.org/1999/xlink">
<g id="graph0" class="graph" transform="scale(1 1) rotate(0) translate(4 747.83)">
<title>MusicAssistantPlayer</title>
<polygon fill="#fafafa" stroke="none" points="-4,4 -4,-747.83 3478.8,-747.83 3478.8,4 -4,4"/>
<g id="clust1" class="cluster">
<title>cluster_app</title>
<polygon fill="#e3f2fd" stroke="black" points="1269.8,-445.33 1269.8,-680.7 1413.8,-680.7 1413.8,-445.33 1269.8,-445.33"/>
<text xml:space="preserve" text-anchor="middle" x="1341.8" y="-665.3" font-family="SF Pro" font-size="12.00">Application Entry</text>
</g>
<g id="clust2" class="cluster">
<title>cluster_macos</title>
<polygon fill="#f3e5f5" stroke="black" points="1573.8,-230.88 1573.8,-523.58 2157.8,-523.58 2157.8,-230.88 1573.8,-230.88"/>
<text xml:space="preserve" text-anchor="middle" x="1865.8" y="-508.18" font-family="Times,serif" font-size="12.00">macOS Integration</text>
</g>
<g id="clust3" class="cluster">
<title>cluster_services</title>
<polygon fill="#e8f5e9" stroke="black" points="939.8,-11.57 939.8,-200.26 1469.8,-200.26 1469.8,-11.57 939.8,-11.57"/>
<text xml:space="preserve" text-anchor="middle" x="1204.8" y="-184.86" font-family="Times,serif" font-size="12.00">Services Layer</text>
</g>
<g id="clust4" class="cluster">
<title>cluster_viewmodels</title>
<polygon fill="#fff3e0" stroke="black" points="833.8,-228.01 833.8,-308.01 1211.8,-308.01 1211.8,-228.01 833.8,-228.01"/>
<text xml:space="preserve" text-anchor="middle" x="1022.8" y="-292.61" font-family="Times,serif" font-size="12.00">ViewModels (MVVM)</text>
</g>
<g id="clust5" class="cluster">
<title>cluster_views</title>
<polygon fill="#e1f5fe" stroke="black" points="149.8,-115.13 149.8,-519.58 825.8,-519.58 825.8,-115.13 149.8,-115.13"/>
<text xml:space="preserve" text-anchor="middle" x="487.8" y="-504.18" font-family="Times,serif" font-size="12.00">Views (SwiftUI)</text>
</g>
<g id="clust6" class="cluster">
<title>cluster_view_components</title>
<polygon fill="#b3e5fc" stroke="black" points="157.8,-123.13 157.8,-413.58 817.8,-413.58 817.8,-123.13 157.8,-123.13"/>
<text xml:space="preserve" text-anchor="middle" x="487.8" y="-398.18" font-family="Times,serif" font-size="12.00">View Components</text>
</g>
<g id="clust7" class="cluster">
<title>cluster_models</title>
<polygon fill="#fce4ec" stroke="black" points="1764.8,-8 1764.8,-89.38 3044.8,-89.38 3044.8,-8 1764.8,-8"/>
<text xml:space="preserve" text-anchor="middle" x="2404.8" y="-73.98" font-family="Times,serif" font-size="12.00">Models (Domain)</text>
</g>
<g id="clust8" class="cluster">
<title>cluster_errors</title>
<polygon fill="#ffebee" stroke="black" points="1477.8,-11.57 1477.8,-85.82 1756.8,-85.82 1756.8,-11.57 1477.8,-11.57"/>
<text xml:space="preserve" text-anchor="middle" x="1617.3" y="-70.42" font-family="Times,serif" font-size="12.00">Error Handling</text>
</g>
<g id="clust9" class="cluster">
<title>cluster_utilities</title>
<polygon fill="#f5f5f5" stroke="black" points="377.8,-11.57 377.8,-85.82 931.8,-85.82 931.8,-11.57 377.8,-11.57"/>
<text xml:space="preserve" text-anchor="middle" x="654.8" y="-70.42" font-family="Times,serif" font-size="12.00">Utilities</text>
</g>
<g id="clust10" class="cluster">
<title>cluster_external</title>
<polygon fill="#eceff1" stroke="black" points="3052.8,-8.69 3052.8,-88.69 3466.8,-88.69 3466.8,-8.69 3052.8,-8.69"/>
<text xml:space="preserve" text-anchor="middle" x="3259.8" y="-73.29" font-family="Times,serif" font-size="12.00">External Dependencies</text>
</g>
<g id="clust11" class="cluster">
<title>cluster_legend</title>
<polygon fill="#ffffff" stroke="black" points="2328.8,-551.33 2328.8,-735.83 2540.8,-735.83 2540.8,-551.33 2328.8,-551.33"/>
<text xml:space="preserve" text-anchor="middle" x="2434.8" y="-722.33" font-family="Times,serif" font-size="10.00">Legend</text>
</g>
<!-- App -->
<g id="node1" class="node">
<title>App</title>
<path fill="#2196f3" stroke="black" d="M1394.05,-651.95C1394.05,-651.95 1289.55,-651.95 1289.55,-651.95 1283.55,-651.95 1277.55,-645.95 1277.55,-639.95 1277.55,-639.95 1277.55,-627.95 1277.55,-627.95 1277.55,-621.95 1283.55,-615.95 1289.55,-615.95 1289.55,-615.95 1394.05,-615.95 1394.05,-615.95 1400.05,-615.95 1406.05,-621.95 1406.05,-627.95 1406.05,-627.95 1406.05,-639.95 1406.05,-639.95 1406.05,-645.95 1400.05,-651.95 1394.05,-651.95"/>
<text xml:space="preserve" text-anchor="middle" x="1341.8" y="-635.7" font-family="SF Pro" font-size="10.00" fill="white">MusicAssistantPlayerApp</text>
<text xml:space="preserve" text-anchor="middle" x="1341.8" y="-624.45" font-family="SF Pro" font-size="10.00" fill="white">@main</text>
</g>
<!-- ServerSetup -->
<g id="node2" class="node">
<title>ServerSetup</title>
<path fill="#64b5f6" stroke="black" d="M1379.8,-489.33C1379.8,-489.33 1303.8,-489.33 1303.8,-489.33 1297.8,-489.33 1291.8,-483.33 1291.8,-477.33 1291.8,-477.33 1291.8,-465.33 1291.8,-465.33 1291.8,-459.33 1297.8,-453.33 1303.8,-453.33 1303.8,-453.33 1379.8,-453.33 1379.8,-453.33 1385.8,-453.33 1391.8,-459.33 1391.8,-465.33 1391.8,-465.33 1391.8,-477.33 1391.8,-477.33 1391.8,-483.33 1385.8,-489.33 1379.8,-489.33"/>
<text xml:space="preserve" text-anchor="middle" x="1341.8" y="-473.08" font-family="SF Pro" font-size="10.00">ServerSetupView</text>
<text xml:space="preserve" text-anchor="middle" x="1341.8" y="-461.83" font-family="SF Pro" font-size="10.00">Initial Configuration</text>
</g>
<!-- App&#45;&gt;ServerSetup -->
<g id="edge1" class="edge">
<title>App&#45;&gt;ServerSetup</title>
<path fill="none" stroke="#666666" d="M1341.8,-615.45C1341.8,-587.94 1341.8,-534.26 1341.8,-501.03"/>
<polygon fill="#666666" stroke="#666666" points="1345.3,-501.31 1341.8,-491.31 1338.3,-501.31 1345.3,-501.31"/>
<text xml:space="preserve" text-anchor="middle" x="1367.67" y="-532.78" font-family="SF Pro" font-size="9.00">initial launch</text>
</g>
<!-- AppShortcuts -->
<g id="node8" class="node">
<title>AppShortcuts</title>
<path fill="#ab47bc" stroke="black" d="M1982.42,-489.33C1982.42,-489.33 1895.17,-489.33 1895.17,-489.33 1889.17,-489.33 1883.17,-483.33 1883.17,-477.33 1883.17,-477.33 1883.17,-465.33 1883.17,-465.33 1883.17,-459.33 1889.17,-453.33 1895.17,-453.33 1895.17,-453.33 1982.42,-453.33 1982.42,-453.33 1988.42,-453.33 1994.42,-459.33 1994.42,-465.33 1994.42,-465.33 1994.42,-477.33 1994.42,-477.33 1994.42,-483.33 1988.42,-489.33 1982.42,-489.33"/>
<text xml:space="preserve" text-anchor="middle" x="1938.8" y="-473.08" font-family="SF Pro" font-size="10.00" fill="white">AppShortcutsProvider</text>
<text xml:space="preserve" text-anchor="middle" x="1938.8" y="-461.83" font-family="SF Pro" font-size="10.00" fill="white">Siri Phrases</text>
</g>
<!-- App&#45;&gt;AppShortcuts -->
<g id="edge43" class="edge">
<title>App&#45;&gt;AppShortcuts</title>
<path fill="none" stroke="#9c27b0" d="M1406.29,-619.71C1494.83,-601 1658.69,-564.53 1795.8,-523.58 1825.12,-514.82 1857.23,-503.47 1883.58,-493.68"/>
<polygon fill="#9c27b0" stroke="#9c27b0" points="1884.57,-497.05 1892.71,-490.27 1882.12,-490.5 1884.57,-497.05"/>
<text xml:space="preserve" text-anchor="middle" x="1777.09" y="-532.78" font-family="SF Pro" font-size="9.00">provides</text>
</g>
<!-- MainWindow -->
<g id="node19" class="node">
<title>MainWindow</title>
<path fill="#03a9f4" stroke="black" d="M636.8,-489.33C636.8,-489.33 566.8,-489.33 566.8,-489.33 560.8,-489.33 554.8,-483.33 554.8,-477.33 554.8,-477.33 554.8,-465.33 554.8,-465.33 554.8,-459.33 560.8,-453.33 566.8,-453.33 566.8,-453.33 636.8,-453.33 636.8,-453.33 642.8,-453.33 648.8,-459.33 648.8,-465.33 648.8,-465.33 648.8,-477.33 648.8,-477.33 648.8,-483.33 642.8,-489.33 636.8,-489.33"/>
<text xml:space="preserve" text-anchor="middle" x="601.8" y="-473.08" font-family="SF Pro" font-size="10.00" fill="white">MainWindowView</text>
<text xml:space="preserve" text-anchor="middle" x="601.8" y="-461.83" font-family="SF Pro" font-size="10.00" fill="white">Standard Layout</text>
</g>
<!-- App&#45;&gt;MainWindow -->
<g id="edge2" class="edge">
<title>App&#45;&gt;MainWindow</title>
<path fill="none" stroke="#666666" stroke-width="2" d="M1277.22,-632.76C1153.86,-630.22 878.32,-613.91 668.8,-523.58 653.9,-517.15 639.35,-506.69 627.64,-496.89"/>
<polygon fill="#666666" stroke="#666666" stroke-width="2" points="631.4,-495.53 621.56,-491.59 626.8,-500.8 631.4,-495.53"/>
<text xml:space="preserve" text-anchor="middle" x="717.72" y="-532.78" font-family="SF Pro" font-size="9.00">creates</text>
</g>
<!-- RoonWindow -->
<g id="node20" class="node">
<title>RoonWindow</title>
<path fill="#03a9f4" stroke="black" d="M805.67,-489.33C805.67,-489.33 689.92,-489.33 689.92,-489.33 683.92,-489.33 677.92,-483.33 677.92,-477.33 677.92,-477.33 677.92,-465.33 677.92,-465.33 677.92,-459.33 683.92,-453.33 689.92,-453.33 689.92,-453.33 805.67,-453.33 805.67,-453.33 811.67,-453.33 817.67,-459.33 817.67,-465.33 817.67,-465.33 817.67,-477.33 817.67,-477.33 817.67,-483.33 811.67,-489.33 805.67,-489.33"/>
<text xml:space="preserve" text-anchor="middle" x="747.8" y="-473.08" font-family="SF Pro" font-size="10.00" fill="white">RoonStyleMainWindowView</text>
<text xml:space="preserve" text-anchor="middle" x="747.8" y="-461.83" font-family="SF Pro" font-size="10.00" fill="white">Three&#45;Column Layout</text>
</g>
<!-- App&#45;&gt;RoonWindow -->
<g id="edge3" class="edge">
<title>App&#45;&gt;RoonWindow</title>
<path fill="none" stroke="#666666" stroke-width="2" d="M1277.1,-615.45C1166.41,-585.52 941.27,-524.64 823.48,-492.79"/>
<polygon fill="#666666" stroke="#666666" stroke-width="2" points="825.91,-489.82 815.34,-490.59 824.08,-496.58 825.91,-489.82"/>
<text xml:space="preserve" text-anchor="middle" x="1006.6" y="-532.78" font-family="SF Pro" font-size="9.00">creates</text>
</g>
<!-- MusicAssistantKit -->
<g id="node48" class="node">
<title>MusicAssistantKit</title>
<polygon fill="#607d8b" stroke="black" points="3170.3,-58.44 3061.3,-58.44 3061.3,-54.44 3057.3,-54.44 3057.3,-50.44 3061.3,-50.44 3061.3,-24.69 3057.3,-24.69 3057.3,-20.69 3061.3,-20.69 3061.3,-16.69 3170.3,-16.69 3170.3,-58.44"/>
<polyline fill="none" stroke="black" points="3061.3,-54.44 3065.3,-54.44 3065.3,-50.44 3061.3,-50.44"/>
<polyline fill="none" stroke="black" points="3061.3,-24.69 3065.3,-24.69 3065.3,-20.69 3061.3,-20.69"/>
<text xml:space="preserve" text-anchor="middle" x="3115.8" y="-44.94" font-family="SF Pro" font-size="10.00" fill="white">MusicAssistantKit</text>
<text xml:space="preserve" text-anchor="middle" x="3115.8" y="-33.69" font-family="SF Pro" font-size="10.00" fill="white">MusicAssistantClient</text>
<text xml:space="preserve" text-anchor="middle" x="3115.8" y="-22.44" font-family="SF Pro" font-size="10.00" fill="white">WebSocket API</text>
</g>
<!-- App&#45;&gt;MusicAssistantKit -->
<g id="edge4" class="edge">
<title>App&#45;&gt;MusicAssistantKit</title>
<path fill="none" stroke="#666666" d="M1406.3,-627.61C1689.62,-603.96 2809.8,-508.16 2809.8,-472.33 -1.2,-8 -1.2,-8 2809.8,-148.13 2809.8,-38.75 2950.07,-136.47 3048.8,-89.38 3061.67,-83.25 3074.47,-74.4 3085.38,-65.8"/>
<polygon fill="#666666" stroke="#666666" points="3087.36,-68.7 3092.89,-59.66 3082.93,-63.28 3087.36,-68.7"/>
<text xml:space="preserve" text-anchor="middle" x="2840.92" y="-317.21" font-family="SF Pro" font-size="9.00">initializes client</text>
</g>
<!-- ServerConfig -->
<g id="node40" class="node">
<title>ServerConfig</title>
<ellipse fill="#f8bbd0" stroke="black" cx="2984.8" cy="-37.57" rx="51.62" ry="21.57"/>
<text xml:space="preserve" text-anchor="middle" x="2984.8" y="-39.32" font-family="SF Pro" font-size="10.00">ServerConfig</text>
<text xml:space="preserve" text-anchor="middle" x="2984.8" y="-28.07" font-family="SF Pro" font-size="10.00">host|port</text>
</g>
<!-- ServerSetup&#45;&gt;ServerConfig -->
<g id="edge73" class="edge">
<title>ServerSetup&#45;&gt;ServerConfig</title>
<path fill="none" stroke="#666666" d="M1347.8,-452.88C1357.92,-423.24 1378.84,-361.1 1394.8,-308.01 1405.41,-272.69 1387.96,-250.99 1416.8,-228.01 1436.89,-212 1622.57,-222.84 1647.8,-218.01 1660.74,-215.53 1662.86,-210.74 1675.8,-208.26 1755.75,-192.93 1777.71,-207.54 1858.8,-200.26 2138.02,-175.19 2204.77,-142.26 2483.8,-115.13 2495.98,-113.95 2912.41,-93.89 2923.8,-89.38 2936.79,-84.25 2949.05,-75.22 2959.13,-66.18"/>
<polygon fill="#666666" stroke="#666666" points="2961.45,-68.8 2966.28,-59.38 2956.62,-63.73 2961.45,-68.8"/>
<text xml:space="preserve" text-anchor="middle" x="1431.8" y="-253.21" font-family="SF Pro" font-size="9.00">creates</text>
</g>
<!-- NetworkValidator -->
<g id="node46" class="node">
<title>NetworkValidator</title>
<path fill="#9e9e9e" stroke="black" d="M717.92,-55.57C717.92,-55.57 651.67,-55.57 651.67,-55.57 645.67,-55.57 639.67,-49.57 639.67,-43.57 639.67,-43.57 639.67,-31.57 639.67,-31.57 639.67,-25.57 645.67,-19.57 651.67,-19.57 651.67,-19.57 717.92,-19.57 717.92,-19.57 723.92,-19.57 729.92,-25.57 729.92,-31.57 729.92,-31.57 729.92,-43.57 729.92,-43.57 729.92,-49.57 723.92,-55.57 717.92,-55.57"/>
<text xml:space="preserve" text-anchor="middle" x="684.8" y="-39.32" font-family="SF Pro" font-size="10.00">NetworkValidator</text>
<text xml:space="preserve" text-anchor="middle" x="684.8" y="-28.07" font-family="SF Pro" font-size="10.00">URL Validation</text>
</g>
<!-- ServerSetup&#45;&gt;NetworkValidator -->
<g id="edge72" class="edge">
<title>ServerSetup&#45;&gt;NetworkValidator</title>
<path fill="none" stroke="#666666" d="M1339.11,-452.84C1330.83,-405.91 1300.91,-277.38 1215.8,-228.01 1184.45,-209.83 923.78,-230.6 889.8,-218.01 838.4,-198.97 864.14,-149.94 821.8,-115.13 791.96,-90.61 772.16,-108.84 738.8,-89.38 727.22,-82.63 716.13,-72.96 707.04,-63.87"/>
<polygon fill="#666666" stroke="#666666" points="709.79,-61.68 700.35,-56.88 704.73,-66.52 709.79,-61.68"/>
<text xml:space="preserve" text-anchor="middle" x="1320.44" y="-253.21" font-family="SF Pro" font-size="9.00">validates URLs</text>
</g>
<!-- NowPlaying -->
<g id="node3" class="node">
<title>NowPlaying</title>
<path fill="#9c27b0" stroke="black" d="M1774.92,-489.33C1774.92,-489.33 1654.67,-489.33 1654.67,-489.33 1648.67,-489.33 1642.67,-483.33 1642.67,-477.33 1642.67,-477.33 1642.67,-465.33 1642.67,-465.33 1642.67,-459.33 1648.67,-453.33 1654.67,-453.33 1654.67,-453.33 1774.92,-453.33 1774.92,-453.33 1780.92,-453.33 1786.92,-459.33 1786.92,-465.33 1786.92,-465.33 1786.92,-477.33 1786.92,-477.33 1786.92,-483.33 1780.92,-489.33 1774.92,-489.33"/>
<text xml:space="preserve" text-anchor="middle" x="1714.8" y="-473.08" font-family="SF Pro" font-size="10.00" fill="white">PlayerService+NowPlaying</text>
<text xml:space="preserve" text-anchor="middle" x="1714.8" y="-461.83" font-family="SF Pro" font-size="10.00" fill="white">Media Keys &amp; Control Center</text>
</g>
<!-- MPRemoteCommandCenter -->
<g id="node4" class="node">
<title>MPRemoteCommandCenter</title>
<ellipse fill="#ba68c8" stroke="black" cx="1880.8" cy="-365.33" rx="98.82" ry="21.57"/>
<text xml:space="preserve" text-anchor="middle" x="1880.8" y="-367.08" font-family="SF Pro" font-size="10.00">MPRemoteCommandCenter</text>
<text xml:space="preserve" text-anchor="middle" x="1880.8" y="-355.83" font-family="SF Pro" font-size="10.00">Media Key Events</text>
</g>
<!-- NowPlaying&#45;&gt;MPRemoteCommandCenter -->
<g id="edge36" class="edge">
<title>NowPlaying&#45;&gt;MPRemoteCommandCenter</title>
<path fill="none" stroke="#9c27b0" d="M1787.39,-453.68C1802.91,-448.12 1818.59,-440.82 1831.8,-431.33 1844.47,-422.21 1855.34,-408.86 1863.59,-396.63"/>
<polygon fill="#9c27b0" stroke="#9c27b0" points="1866.39,-398.74 1868.82,-388.43 1860.49,-394.98 1866.39,-398.74"/>
<text xml:space="preserve" text-anchor="middle" x="1878.69" y="-422.78" font-family="SF Pro" font-size="9.00">registers handlers</text>
</g>
<!-- MPNowPlayingInfoCenter -->
<g id="node5" class="node">
<title>MPNowPlayingInfoCenter</title>
<ellipse fill="#ba68c8" stroke="black" cx="1672.8" cy="-365.33" rx="91.39" ry="21.57"/>
<text xml:space="preserve" text-anchor="middle" x="1672.8" y="-367.08" font-family="SF Pro" font-size="10.00">MPNowPlayingInfoCenter</text>
<text xml:space="preserve" text-anchor="middle" x="1672.8" y="-355.83" font-family="SF Pro" font-size="10.00">Control Center Display</text>
</g>
<!-- NowPlaying&#45;&gt;MPNowPlayingInfoCenter -->
<g id="edge37" class="edge">
<title>NowPlaying&#45;&gt;MPNowPlayingInfoCenter</title>
<path fill="none" stroke="#9c27b0" d="M1698.36,-452.86C1693.2,-446.51 1687.97,-439 1684.55,-431.33 1679.99,-421.09 1677.2,-409.21 1675.49,-398.42"/>
<polygon fill="#9c27b0" stroke="#9c27b0" points="1679,-398.24 1674.23,-388.77 1672.06,-399.14 1679,-398.24"/>
<text xml:space="preserve" text-anchor="middle" x="1709.67" y="-422.78" font-family="SF Pro" font-size="9.00">updates info</text>
</g>
<!-- PlayerService -->
<g id="node10" class="node">
<title>PlayerService</title>
<path fill="#4caf50" stroke="black" d="M1449.8,-170.01C1449.8,-170.01 1331.8,-170.01 1331.8,-170.01 1325.8,-170.01 1319.8,-164.01 1319.8,-158.01 1319.8,-158.01 1319.8,-140.26 1319.8,-140.26 1319.8,-134.26 1325.8,-128.26 1331.8,-128.26 1331.8,-128.26 1449.8,-128.26 1449.8,-128.26 1455.8,-128.26 1461.8,-134.26 1461.8,-140.26 1461.8,-140.26 1461.8,-158.01 1461.8,-158.01 1461.8,-164.01 1455.8,-170.01 1449.8,-170.01"/>
<text xml:space="preserve" text-anchor="middle" x="1390.8" y="-156.51" font-family="SF Pro" font-size="10.00" fill="white">PlayerService</text>
<text xml:space="preserve" text-anchor="middle" x="1390.8" y="-145.26" font-family="SF Pro" font-size="10.00" fill="white">Playback State Management</text>
<text xml:space="preserve" text-anchor="middle" x="1390.8" y="-134.01" font-family="SF Pro" font-size="10.00" fill="white">@MainActor</text>
</g>
<!-- NowPlaying&#45;&gt;PlayerService -->
<g id="edge35" class="edge">
<title>NowPlaying&#45;&gt;PlayerService</title>
<path fill="none" stroke="#9c27b0" stroke-width="2" d="M1642.5,-469.84C1566.59,-467.78 1454,-459.82 1422.8,-431.33 1352.88,-367.47 1370.1,-240.39 1382.88,-181.48"/>
<polygon fill="#9c27b0" stroke="#9c27b0" stroke-width="2" points="1385.94,-183.79 1384.76,-173.26 1379.12,-182.23 1385.94,-183.79"/>
<text xml:space="preserve" text-anchor="middle" x="1389.81" y="-317.21" font-family="SF Pro" font-size="9.00">extends</text>
</g>
<!-- AppLogger -->
<g id="node44" class="node">
<title>AppLogger</title>
<path fill="#757575" stroke="black" d="M911.67,-55.57C911.67,-55.57 759.92,-55.57 759.92,-55.57 753.92,-55.57 747.92,-49.57 747.92,-43.57 747.92,-43.57 747.92,-31.57 747.92,-31.57 747.92,-25.57 753.92,-19.57 759.92,-19.57 759.92,-19.57 911.67,-19.57 911.67,-19.57 917.67,-19.57 923.67,-25.57 923.67,-31.57 923.67,-31.57 923.67,-43.57 923.67,-43.57 923.67,-49.57 917.67,-55.57 911.67,-55.57"/>
<text xml:space="preserve" text-anchor="middle" x="835.8" y="-39.32" font-family="SF Pro" font-size="10.00" fill="white">AppLogger</text>
<text xml:space="preserve" text-anchor="middle" x="835.8" y="-28.07" font-family="SF Pro" font-size="10.00" fill="white">network|player|ui|cache|errors|intents</text>
</g>
<!-- NowPlaying&#45;&gt;AppLogger -->
<g id="edge67" class="edge">
<title>NowPlaying&#45;&gt;AppLogger</title>
<path fill="none" stroke="#666666" d="M1642.19,-464.78C1572.51,-457.76 1474.48,-442.89 1450.8,-413.58 1398.97,-349.42 1508.57,-286.87 1450.8,-228.01 1430.05,-206.87 945.39,-228.78 917.8,-218.01 906.73,-213.69 904.56,-210.03 897.8,-200.26 882.38,-177.99 857.95,-106.95 844.83,-66.83"/>
<polygon fill="#666666" stroke="#666666" points="848.18,-65.81 841.76,-57.38 841.52,-67.97 848.18,-65.81"/>
<text xml:space="preserve" text-anchor="middle" x="1476.75" y="-253.21" font-family="SF Pro" font-size="9.00">logs</text>
</g>
<!-- MediaPlayer -->
<g id="node49" class="node">
<title>MediaPlayer</title>
<polygon fill="#78909c" stroke="black" points="3458.67,-58.44 3318.92,-58.44 3318.92,-54.44 3314.92,-54.44 3314.92,-50.44 3318.92,-50.44 3318.92,-24.69 3314.92,-24.69 3314.92,-20.69 3318.92,-20.69 3318.92,-16.69 3458.67,-16.69 3458.67,-58.44"/>
<polyline fill="none" stroke="black" points="3318.92,-54.44 3322.92,-54.44 3322.92,-50.44 3318.92,-50.44"/>
<polyline fill="none" stroke="black" points="3318.92,-24.69 3322.92,-24.69 3322.92,-20.69 3318.92,-20.69"/>
<text xml:space="preserve" text-anchor="middle" x="3388.8" y="-44.94" font-family="SF Pro" font-size="10.00">MediaPlayer.framework</text>
<text xml:space="preserve" text-anchor="middle" x="3388.8" y="-33.69" font-family="SF Pro" font-size="10.00">MPRemoteCommandCenter</text>
<text xml:space="preserve" text-anchor="middle" x="3388.8" y="-22.44" font-family="SF Pro" font-size="10.00">MPNowPlayingInfoCenter</text>
</g>
<!-- NowPlaying&#45;&gt;MediaPlayer -->
<g id="edge39" class="edge">
<title>NowPlaying&#45;&gt;MediaPlayer</title>
<path fill="none" stroke="#666666" stroke-dasharray="5,2" d="M1787.03,-457.46C1814.16,-453.02 1845.32,-448.4 1873.8,-445.33 1978.26,-434.04 2005.23,-441.64 2109.8,-431.33 2450.49,-397.7 2547.48,-432.36 2872.8,-325.76 3066.59,-262.25 3270.76,-124.05 3352.18,-65.57"/>
<polygon fill="#666666" stroke="#666666" points="3354.2,-68.42 3360.26,-59.73 3350.11,-62.75 3354.2,-68.42"/>
<text xml:space="preserve" text-anchor="middle" x="3122.36" y="-253.21" font-family="SF Pro" font-size="9.00">uses framework</text>
</g>
<!-- MPRemoteCommandCenter&#45;&gt;NowPlaying -->
<g id="edge38" class="edge">
<title>MPRemoteCommandCenter&#45;&gt;NowPlaying</title>
<path fill="none" stroke="#9c27b0" d="M1827.11,-389.57C1794.99,-403.57 1759.78,-419.16 1756.55,-421.58 1744.76,-430.37 1734.02,-443.05 1726.39,-453.28"/>
<polygon fill="#9c27b0" stroke="#9c27b0" points="1828.22,-392.9 1835.99,-385.7 1825.43,-386.48 1828.22,-392.9"/>
<text xml:space="preserve" text-anchor="middle" x="1792.17" y="-422.78" font-family="SF Pro" font-size="9.00">media key events</text>
</g>
<!-- IntentHelper -->
<g id="node6" class="node">
<title>IntentHelper</title>
<path fill="#9c27b0" stroke="black" d="M1657.42,-274.88C1657.42,-274.88 1594.17,-274.88 1594.17,-274.88 1588.17,-274.88 1582.17,-268.88 1582.17,-262.88 1582.17,-262.88 1582.17,-250.88 1582.17,-250.88 1582.17,-244.88 1588.17,-238.88 1594.17,-238.88 1594.17,-238.88 1657.42,-238.88 1657.42,-238.88 1663.42,-238.88 1669.42,-244.88 1669.42,-250.88 1669.42,-250.88 1669.42,-262.88 1669.42,-262.88 1669.42,-268.88 1663.42,-274.88 1657.42,-274.88"/>
<text xml:space="preserve" text-anchor="middle" x="1625.8" y="-258.63" font-family="SF Pro" font-size="10.00" fill="white">IntentHelper</text>
<text xml:space="preserve" text-anchor="middle" x="1625.8" y="-247.38" font-family="SF Pro" font-size="10.00" fill="white">Singleton Bridge</text>
</g>
<!-- IntentHelper&#45;&gt;PlayerService -->
<g id="edge41" class="edge">
<title>IntentHelper&#45;&gt;PlayerService</title>
<path fill="none" stroke="#9c27b0" stroke-dasharray="5,2" d="M1581.81,-248.18C1553.5,-242.22 1516.41,-232.5 1485.8,-218.01 1463.18,-207.3 1440.28,-191.13 1422.63,-177.26"/>
<polygon fill="#9c27b0" stroke="#9c27b0" points="1425.08,-174.73 1415.09,-171.2 1420.7,-180.19 1425.08,-174.73"/>
<text xml:space="preserve" text-anchor="middle" x="1517.3" y="-209.46" font-family="SF Pro" font-size="9.00">weak reference</text>
</g>
<!-- AppIntents -->
<g id="node7" class="node">
<title>AppIntents</title>
<path fill="#ab47bc" stroke="black" d="M2137.67,-383.33C2137.67,-383.33 2009.92,-383.33 2009.92,-383.33 2003.92,-383.33 1997.92,-377.33 1997.92,-371.33 1997.92,-371.33 1997.92,-359.33 1997.92,-359.33 1997.92,-353.33 2003.92,-347.33 2009.92,-347.33 2009.92,-347.33 2137.67,-347.33 2137.67,-347.33 2143.67,-347.33 2149.67,-353.33 2149.67,-359.33 2149.67,-359.33 2149.67,-371.33 2149.67,-371.33 2149.67,-377.33 2143.67,-383.33 2137.67,-383.33"/>
<text xml:space="preserve" text-anchor="middle" x="2073.8" y="-367.08" font-family="SF Pro" font-size="10.00" fill="white">PlayerIntents</text>
<text xml:space="preserve" text-anchor="middle" x="2073.8" y="-355.83" font-family="SF Pro" font-size="10.00" fill="white">Play|Pause|Stop|Next|Previous</text>
</g>
<!-- AppIntents&#45;&gt;IntentHelper -->
<g id="edge40" class="edge">
<title>AppIntents&#45;&gt;IntentHelper</title>
<path fill="none" stroke="#9c27b0" d="M2006.75,-346.85C2000.71,-345.66 1994.66,-344.6 1988.8,-343.76 1967.45,-340.71 1615.94,-341.36 1601.05,-325.76 1590.39,-314.59 1595.7,-298.46 1604.1,-284.73"/>
<polygon fill="#9c27b0" stroke="#9c27b0" points="1606.96,-286.74 1609.71,-276.51 1601.18,-282.8 1606.96,-286.74"/>
<text xml:space="preserve" text-anchor="middle" x="1656.92" y="-317.21" font-family="SF Pro" font-size="9.00">accesses PlayerService via</text>
</g>
<!-- AppIntents&#45;&gt;AppLogger -->
<g id="edge68" class="edge">
<title>AppIntents&#45;&gt;AppLogger</title>
<path fill="none" stroke="#666666" d="M2039.05,-346.95C1967.83,-312.39 1799.26,-236.01 1647.8,-208.26 1628.34,-204.69 952.2,-211.31 935.8,-200.26 894.71,-172.56 920.07,-138.76 892.8,-97.38 884.79,-85.23 874.07,-73.4 864.1,-63.57"/>
<polygon fill="#666666" stroke="#666666" points="866.71,-61.23 857.06,-56.86 861.89,-66.29 866.71,-61.23"/>
<text xml:space="preserve" text-anchor="middle" x="1697.95" y="-209.46" font-family="SF Pro" font-size="9.00">logs</text>
</g>
<!-- AppIntentsFramework -->
<g id="node50" class="node">
<title>AppIntentsFramework</title>
<polygon fill="#78909c" stroke="black" points="3300.8,-55.57 3188.8,-55.57 3188.8,-51.57 3184.8,-51.57 3184.8,-47.57 3188.8,-47.57 3188.8,-27.57 3184.8,-27.57 3184.8,-23.57 3188.8,-23.57 3188.8,-19.57 3300.8,-19.57 3300.8,-55.57"/>
<polyline fill="none" stroke="black" points="3188.8,-51.57 3192.8,-51.57 3192.8,-47.57 3188.8,-47.57"/>
<polyline fill="none" stroke="black" points="3188.8,-27.57 3192.8,-27.57 3192.8,-23.57 3188.8,-23.57"/>
<text xml:space="preserve" text-anchor="middle" x="3244.8" y="-39.32" font-family="SF Pro" font-size="10.00">AppIntents.framework</text>
<text xml:space="preserve" text-anchor="middle" x="3244.8" y="-28.07" font-family="SF Pro" font-size="10.00">Siri &amp; Shortcuts</text>
</g>
<!-- AppIntents&#45;&gt;AppIntentsFramework -->
<g id="edge45" class="edge">
<title>AppIntents&#45;&gt;AppIntentsFramework</title>
<path fill="none" stroke="#666666" stroke-dasharray="5,2" d="M2112.22,-346.9C2225.62,-296.49 2569.96,-150.69 2872.8,-97.38 2906.41,-91.47 3147.68,-100.92 3179.8,-89.38 3194.8,-84 3209.04,-73.69 3220.34,-63.77"/>
<polygon fill="#666666" stroke="#666666" points="3222.67,-66.38 3227.63,-57.01 3217.92,-61.24 3222.67,-66.38"/>
<text xml:space="preserve" text-anchor="middle" x="2496.19" y="-209.46" font-family="SF Pro" font-size="9.00">uses framework</text>
</g>
<!-- AppShortcuts&#45;&gt;AppIntents -->
<g id="edge42" class="edge">
<title>AppShortcuts&#45;&gt;AppIntents</title>
<path fill="none" stroke="#9c27b0" d="M1961.4,-452.92C1983.49,-435.89 2017.34,-409.82 2042.12,-390.73"/>
<polygon fill="#9c27b0" stroke="#9c27b0" points="2044.14,-393.59 2049.93,-384.71 2039.87,-388.04 2044.14,-393.59"/>
<text xml:space="preserve" text-anchor="middle" x="2015.84" y="-422.78" font-family="SF Pro" font-size="9.00">registers</text>
</g>
<!-- Siri -->
<g id="node9" class="node">
<title>Siri</title>
<path fill="#ce93d8" stroke="black" d="M2125.84,-468.84C2125.84,-468.84 2125.84,-473.81 2125.84,-473.81 2125.84,-476.3 2123.49,-479.59 2121.14,-480.41 2121.14,-480.41 2100.05,-487.7 2100.05,-487.7 2097.7,-488.51 2092.87,-489.33 2090.38,-489.33 2090.38,-489.33 2057.22,-489.33 2057.22,-489.33 2054.73,-489.33 2049.9,-488.51 2047.55,-487.7 2047.55,-487.7 2026.46,-480.41 2026.46,-480.41 2024.11,-479.59 2021.76,-476.3 2021.76,-473.81 2021.76,-473.81 2021.76,-468.84 2021.76,-468.84 2021.76,-466.35 2024.11,-463.06 2026.46,-462.24 2026.46,-462.24 2047.55,-454.95 2047.55,-454.95 2049.9,-454.14 2054.73,-453.33 2057.22,-453.33 2057.22,-453.33 2090.38,-453.33 2090.38,-453.33 2092.87,-453.33 2097.7,-454.14 2100.05,-454.95 2100.05,-454.95 2121.14,-462.24 2121.14,-462.24 2123.49,-463.06 2125.84,-466.35 2125.84,-468.84"/>
<path fill="none" stroke="black" d="M2129.84,-467.89C2129.84,-467.89 2129.84,-474.76 2129.84,-474.76 2129.84,-478.2 2126.59,-482.75 2123.34,-483.88 2123.34,-483.88 2102.52,-491.08 2102.52,-491.08 2099.27,-492.2 2092.59,-493.33 2089.16,-493.33 2089.16,-493.33 2058.44,-493.33 2058.44,-493.33 2055.01,-493.33 2048.33,-492.2 2045.08,-491.08 2045.08,-491.08 2024.26,-483.88 2024.26,-483.88 2021.01,-482.75 2017.76,-478.2 2017.76,-474.76 2017.76,-474.76 2017.76,-467.89 2017.76,-467.89 2017.76,-464.46 2021.01,-459.9 2024.26,-458.77 2024.26,-458.77 2045.08,-451.57 2045.08,-451.57 2048.33,-450.45 2055.01,-449.33 2058.44,-449.33 2058.44,-449.33 2089.16,-449.33 2089.16,-449.33 2092.59,-449.33 2099.27,-450.45 2102.52,-451.57 2102.52,-451.57 2123.34,-458.77 2123.34,-458.77 2126.59,-459.9 2129.84,-464.46 2129.84,-467.89"/>
<text xml:space="preserve" text-anchor="middle" x="2073.8" y="-467.45" font-family="SF Pro" font-size="10.00">Siri / Shortcuts</text>
</g>
<!-- Siri&#45;&gt;AppIntents -->
<g id="edge44" class="edge">
<title>Siri&#45;&gt;AppIntents</title>
<path fill="none" stroke="#9c27b0" d="M2073.8,-449.03C2073.8,-433.38 2073.8,-411.96 2073.8,-394.84"/>
<polygon fill="#9c27b0" stroke="#9c27b0" points="2077.3,-395.31 2073.8,-385.31 2070.3,-395.31 2077.3,-395.31"/>
<text xml:space="preserve" text-anchor="middle" x="2089.55" y="-422.78" font-family="SF Pro" font-size="9.00">invokes</text>
</g>
<!-- EventParser -->
<g id="node15" class="node">
<title>EventParser</title>
<path fill="#81c784" stroke="black" d="M1236.17,-55.57C1236.17,-55.57 1129.42,-55.57 1129.42,-55.57 1123.42,-55.57 1117.42,-49.57 1117.42,-43.57 1117.42,-43.57 1117.42,-31.57 1117.42,-31.57 1117.42,-25.57 1123.42,-19.57 1129.42,-19.57 1129.42,-19.57 1236.17,-19.57 1236.17,-19.57 1242.17,-19.57 1248.17,-25.57 1248.17,-31.57 1248.17,-31.57 1248.17,-43.57 1248.17,-43.57 1248.17,-49.57 1242.17,-55.57 1236.17,-55.57"/>
<text xml:space="preserve" text-anchor="middle" x="1182.8" y="-39.32" font-family="SF Pro" font-size="10.00">EventParser</text>
<text xml:space="preserve" text-anchor="middle" x="1182.8" y="-28.07" font-family="SF Pro" font-size="10.00">WebSocket Event Parsing</text>
</g>
<!-- PlayerService&#45;&gt;EventParser -->
<g id="edge19" class="edge">
<title>PlayerService&#45;&gt;EventParser</title>
<path fill="none" stroke="#666666" d="M1348.89,-127.83C1336.85,-122.83 1323.53,-118.08 1310.8,-115.13 1297.05,-111.96 1193.8,-117.33 1184.05,-107.13 1174.09,-96.71 1173.27,-80.81 1175.17,-66.94"/>
<polygon fill="#666666" stroke="#666666" points="1178.55,-67.9 1176.99,-57.42 1171.68,-66.59 1178.55,-67.9"/>
<text xml:space="preserve" text-anchor="middle" x="1236.92" y="-98.58" font-family="SF Pro" font-size="9.00">parses WebSocket events</text>
</g>
<!-- Track -->
<g id="node31" class="node">
<title>Track</title>
<path fill="#e91e63" stroke="black" d="M2404.17,-55.57C2404.17,-55.57 2297.42,-55.57 2297.42,-55.57 2291.42,-55.57 2285.42,-49.57 2285.42,-43.57 2285.42,-43.57 2285.42,-31.57 2285.42,-31.57 2285.42,-25.57 2291.42,-19.57 2297.42,-19.57 2297.42,-19.57 2404.17,-19.57 2404.17,-19.57 2410.17,-19.57 2416.17,-25.57 2416.17,-31.57 2416.17,-31.57 2416.17,-43.57 2416.17,-43.57 2416.17,-49.57 2410.17,-55.57 2404.17,-55.57"/>
<text xml:space="preserve" text-anchor="middle" x="2350.8" y="-39.32" font-family="SF Pro" font-size="10.00" fill="white">Track</text>
<text xml:space="preserve" text-anchor="middle" x="2350.8" y="-28.07" font-family="SF Pro" font-size="10.00" fill="white">id|title|artist|album|duration</text>
</g>
<!-- PlayerService&#45;&gt;Track -->
<g id="edge21" class="edge">
<title>PlayerService&#45;&gt;Track</title>
<path fill="none" stroke="#666666" d="M1462.21,-147.26C1542.95,-144.79 1677.73,-136.18 1789.8,-107.13 1800.45,-104.37 1801.79,-99.69 1812.55,-97.38 1863,-86.58 2227.66,-105.1 2276.8,-89.38 2293.64,-84 2310.09,-73.4 2323.19,-63.28"/>
<polygon fill="#666666" stroke="#666666" points="2325.34,-66.03 2330.91,-57.02 2320.94,-60.59 2325.34,-66.03"/>
<text xml:space="preserve" text-anchor="middle" x="1831.67" y="-98.58" font-family="SF Pro" font-size="9.00">manages</text>
</g>
<!-- Player -->
<g id="node32" class="node">
<title>Player</title>
<path fill="#ec407a" stroke="black" d="M2718.55,-55.57C2718.55,-55.57 2635.05,-55.57 2635.05,-55.57 2629.05,-55.57 2623.05,-49.57 2623.05,-43.57 2623.05,-43.57 2623.05,-31.57 2623.05,-31.57 2623.05,-25.57 2629.05,-19.57 2635.05,-19.57 2635.05,-19.57 2718.55,-19.57 2718.55,-19.57 2724.55,-19.57 2730.55,-25.57 2730.55,-31.57 2730.55,-31.57 2730.55,-43.57 2730.55,-43.57 2730.55,-49.57 2724.55,-55.57 2718.55,-55.57"/>
<text xml:space="preserve" text-anchor="middle" x="2676.8" y="-39.32" font-family="SF Pro" font-size="10.00" fill="white">Player</text>
<text xml:space="preserve" text-anchor="middle" x="2676.8" y="-28.07" font-family="SF Pro" font-size="10.00" fill="white">id|name|state|volume</text>
</g>
<!-- PlayerService&#45;&gt;Player -->
<g id="edge22" class="edge">
<title>PlayerService&#45;&gt;Player</title>
<path fill="none" stroke="#666666" d="M1461.86,-145.43C1584.34,-140.29 1830.12,-127.75 1913.8,-107.13 1924.48,-104.5 1925.79,-99.66 1936.55,-97.38 1973.42,-89.59 2579.39,-102.28 2614.8,-89.38 2629.35,-84.09 2642.96,-73.79 2653.71,-63.85"/>
<polygon fill="#666666" stroke="#666666" points="2655.89,-66.61 2660.59,-57.11 2650.99,-61.61 2655.89,-66.61"/>
<text xml:space="preserve" text-anchor="middle" x="1955.67" y="-98.58" font-family="SF Pro" font-size="9.00">manages</text>
</g>
<!-- PlaybackState -->
<g id="node38" class="node">
<title>PlaybackState</title>
<ellipse fill="#f8bbd0" stroke="black" cx="2831.8" cy="-37.57" rx="82.91" ry="21.57"/>
<text xml:space="preserve" text-anchor="middle" x="2831.8" y="-39.32" font-family="SF Pro" font-size="10.00">PlaybackState</text>
<text xml:space="preserve" text-anchor="middle" x="2831.8" y="-28.07" font-family="SF Pro" font-size="10.00">playing|paused|stopped</text>
</g>
<!-- PlayerService&#45;&gt;PlaybackState -->
<g id="edge23" class="edge">
<title>PlayerService&#45;&gt;PlaybackState</title>
<path fill="none" stroke="#666666" d="M1462.12,-146.1C1572.46,-142.28 1790.99,-132.05 1974.8,-107.13 1996.48,-104.19 2001.29,-99.68 2023.05,-97.38 2062.65,-93.2 2701.29,-99.54 2739.8,-89.38 2759.23,-84.26 2778.97,-74.14 2795.16,-64.27"/>
<polygon fill="#666666" stroke="#666666" points="2796.89,-67.32 2803.47,-59.01 2793.14,-61.4 2796.89,-67.32"/>
<text xml:space="preserve" text-anchor="middle" x="2042.92" y="-98.58" font-family="SF Pro" font-size="9.00">publishes</text>
</g>
<!-- ConnectionState -->
<g id="node39" class="node">
<title>ConnectionState</title>
<ellipse fill="#f8bbd0" stroke="black" cx="2519.8" cy="-37.57" rx="85.56" ry="21.57"/>
<text xml:space="preserve" text-anchor="middle" x="2519.8" y="-39.32" font-family="SF Pro" font-size="10.00">ConnectionState</text>
<text xml:space="preserve" text-anchor="middle" x="2519.8" y="-28.07" font-family="SF Pro" font-size="10.00">connected|disconnected</text>
</g>
<!-- PlayerService&#45;&gt;ConnectionState -->
<g id="edge24" class="edge">
<title>PlayerService&#45;&gt;ConnectionState</title>
<path fill="none" stroke="#666666" d="M1462.05,-148.52C1553.43,-147.5 1716.17,-140.51 1850.8,-107.13 1861.68,-104.44 1863.08,-99.67 1874.05,-97.38 1933.96,-84.88 2365.54,-104.69 2424.8,-89.38 2444.93,-84.18 2465.5,-73.91 2482.32,-63.96"/>
<polygon fill="#666666" stroke="#666666" points="2483.77,-67.18 2490.47,-58.97 2480.12,-61.21 2483.77,-67.18"/>
<text xml:space="preserve" text-anchor="middle" x="1893.92" y="-98.58" font-family="SF Pro" font-size="9.00">publishes</text>
</g>
<!-- PlayerError -->
<g id="node41" class="node">
<title>PlayerError</title>
<path fill="#f44336" stroke="black" d="M1736.3,-55.57C1736.3,-55.57 1681.3,-55.57 1681.3,-55.57 1675.3,-55.57 1669.3,-49.57 1669.3,-43.57 1669.3,-43.57 1669.3,-31.57 1669.3,-31.57 1669.3,-25.57 1675.3,-19.57 1681.3,-19.57 1681.3,-19.57 1736.3,-19.57 1736.3,-19.57 1742.3,-19.57 1748.3,-25.57 1748.3,-31.57 1748.3,-31.57 1748.3,-43.57 1748.3,-43.57 1748.3,-49.57 1742.3,-55.57 1736.3,-55.57"/>
<text xml:space="preserve" text-anchor="middle" x="1708.8" y="-39.32" font-family="SF Pro" font-size="10.00" fill="white">PlayerError</text>
<text xml:space="preserve" text-anchor="middle" x="1708.8" y="-28.07" font-family="SF Pro" font-size="10.00" fill="white">Domain Errors</text>
</g>
<!-- PlayerService&#45;&gt;PlayerError -->
<g id="edge32" class="edge">
<title>PlayerService&#45;&gt;PlayerError</title>
<path fill="none" stroke="#666666" d="M1394.17,-127.94C1397.13,-116.98 1402.63,-104.29 1412.8,-97.38 1435.6,-81.88 1635.66,-100.7 1660.8,-89.38 1672.62,-84.06 1682.94,-74.33 1690.95,-64.79"/>
<polygon fill="#666666" stroke="#666666" points="1693.58,-67.1 1696.96,-57.06 1688.06,-62.81 1693.58,-67.1"/>
<text xml:space="preserve" text-anchor="middle" x="1426.3" y="-98.58" font-family="SF Pro" font-size="9.00">throws</text>
</g>
<!-- PlayerService&#45;&gt;AppLogger -->
<g id="edge64" class="edge">
<title>PlayerService&#45;&gt;AppLogger</title>
<path fill="none" stroke="#666666" d="M1349.78,-127.9C1337.53,-122.78 1323.87,-117.93 1310.8,-115.13 1254.44,-103.06 1108.87,-113.18 1051.55,-107.13 1027.4,-104.59 1021.79,-101.1 997.8,-97.38 970.34,-93.12 962.35,-97.57 935.8,-89.38 914.23,-82.73 891.7,-71.69 873.49,-61.59"/>
<polygon fill="#666666" stroke="#666666" points="875.32,-58.6 864.9,-56.7 871.86,-64.69 875.32,-58.6"/>
<text xml:space="preserve" text-anchor="middle" x="1060.17" y="-98.58" font-family="SF Pro" font-size="9.00">logs</text>
</g>
<!-- PlayerService&#45;&gt;MusicAssistantKit -->
<g id="edge16" class="edge">
<title>PlayerService&#45;&gt;MusicAssistantKit</title>
<path fill="none" stroke="#666666" d="M1462.15,-147.71C1606.95,-146.18 1945.55,-139.16 2227.8,-107.13 2252.25,-104.36 2257.8,-99.69 2282.3,-97.38 2324.7,-93.4 3008.51,-103.17 3048.8,-89.38 3062.97,-84.54 3076.54,-75.41 3087.72,-66.22"/>
<polygon fill="#666666" stroke="#666666" points="3089.73,-69.11 3094.99,-59.91 3085.15,-63.82 3089.73,-69.11"/>
<text xml:space="preserve" text-anchor="middle" x="2343.05" y="-98.58" font-family="SF Pro" font-size="9.00">play|pause|stop|next|previous</text>
</g>
<!-- QueueService -->
<g id="node11" class="node">
<title>QueueService</title>
<path fill="#66bb6a" stroke="black" d="M1289.67,-167.13C1289.67,-167.13 1209.92,-167.13 1209.92,-167.13 1203.92,-167.13 1197.92,-161.13 1197.92,-155.13 1197.92,-155.13 1197.92,-143.13 1197.92,-143.13 1197.92,-137.13 1203.92,-131.13 1209.92,-131.13 1209.92,-131.13 1289.67,-131.13 1289.67,-131.13 1295.67,-131.13 1301.67,-137.13 1301.67,-143.13 1301.67,-143.13 1301.67,-155.13 1301.67,-155.13 1301.67,-161.13 1295.67,-167.13 1289.67,-167.13"/>
<text xml:space="preserve" text-anchor="middle" x="1249.8" y="-150.88" font-family="SF Pro" font-size="10.00" fill="white">QueueService</text>
<text xml:space="preserve" text-anchor="middle" x="1249.8" y="-139.63" font-family="SF Pro" font-size="10.00" fill="white">Queue Management</text>
</g>
<!-- QueueService&#45;&gt;EventParser -->
<g id="edge20" class="edge">
<title>QueueService&#45;&gt;EventParser</title>
<path fill="none" stroke="#666666" d="M1223.19,-130.72C1212.86,-124.78 1200.67,-118.74 1188.8,-115.13 1170.65,-109.62 1116.57,-121.16 1103.8,-107.13 1095.22,-97.71 1119.8,-78 1143.75,-62.13"/>
<polygon fill="#666666" stroke="#666666" points="1145.41,-65.23 1151.91,-56.86 1141.61,-59.35 1145.41,-65.23"/>
<text xml:space="preserve" text-anchor="middle" x="1132.3" y="-98.58" font-family="SF Pro" font-size="9.00">parses events</text>
</g>
<!-- QueueService&#45;&gt;Track -->
<g id="edge25" class="edge">
<title>QueueService&#45;&gt;Track</title>
<path fill="none" stroke="#666666" d="M1275.38,-130.78C1285.88,-124.61 1298.46,-118.39 1310.8,-115.13 1394.4,-93.05 1615.91,-128.08 1699.8,-107.13 1709.1,-104.81 1709.74,-99.68 1719.05,-97.38 1779.23,-82.56 2217.74,-108.18 2276.8,-89.38 2293.77,-83.98 2310.33,-73.28 2323.47,-63.08"/>
<polygon fill="#666666" stroke="#666666" points="2325.67,-65.81 2331.22,-56.79 2321.25,-60.38 2325.67,-65.81"/>
<text xml:space="preserve" text-anchor="middle" x="1752.42" y="-98.58" font-family="SF Pro" font-size="9.00">manages queue</text>
</g>
<!-- QueueError -->
<g id="node42" class="node">
<title>QueueError</title>
<path fill="#ef5350" stroke="black" d="M1639.67,-55.57C1639.67,-55.57 1589.92,-55.57 1589.92,-55.57 1583.92,-55.57 1577.92,-49.57 1577.92,-43.57 1577.92,-43.57 1577.92,-31.57 1577.92,-31.57 1577.92,-25.57 1583.92,-19.57 1589.92,-19.57 1589.92,-19.57 1639.67,-19.57 1639.67,-19.57 1645.67,-19.57 1651.67,-25.57 1651.67,-31.57 1651.67,-31.57 1651.67,-43.57 1651.67,-43.57 1651.67,-49.57 1645.67,-55.57 1639.67,-55.57"/>
<text xml:space="preserve" text-anchor="middle" x="1614.8" y="-39.32" font-family="SF Pro" font-size="10.00" fill="white">QueueError</text>
<text xml:space="preserve" text-anchor="middle" x="1614.8" y="-28.07" font-family="SF Pro" font-size="10.00" fill="white">Queue Errors</text>
</g>
<!-- QueueService&#45;&gt;QueueError -->
<g id="edge33" class="edge">
<title>QueueService&#45;&gt;QueueError</title>
<path fill="none" stroke="#666666" d="M1278.62,-130.8C1288.58,-125.29 1299.96,-119.49 1310.8,-115.13 1323.2,-110.14 1326.94,-110.81 1339.8,-107.13 1354.5,-102.93 1357.71,-99.88 1372.8,-97.38 1394.3,-93.82 1549.06,-98.63 1568.8,-89.38 1580.11,-84.08 1589.89,-74.58 1597.48,-65.22"/>
<polygon fill="#666666" stroke="#666666" points="1600.23,-67.38 1603.41,-57.27 1594.62,-63.19 1600.23,-67.38"/>
<text xml:space="preserve" text-anchor="middle" x="1386.3" y="-98.58" font-family="SF Pro" font-size="9.00">throws</text>
</g>
<!-- QueueService&#45;&gt;AppLogger -->
<g id="edge65" class="edge">
<title>QueueService&#45;&gt;AppLogger</title>
<path fill="none" stroke="#666666" d="M1223.89,-130.72C1213.45,-124.62 1200.99,-118.47 1188.8,-115.13 1144.13,-102.91 1025.73,-117.31 980.55,-107.13 969.82,-104.72 968.03,-101.43 957.8,-97.38 948.12,-93.56 945.34,-93.53 935.8,-89.38 916.39,-80.96 895.43,-70.53 877.75,-61.31"/>
<polygon fill="#666666" stroke="#666666" points="879.57,-58.32 869.09,-56.76 876.31,-64.51 879.57,-58.32"/>
<text xml:space="preserve" text-anchor="middle" x="989.17" y="-98.58" font-family="SF Pro" font-size="9.00">logs</text>
</g>
<!-- QueueService&#45;&gt;MusicAssistantKit -->
<g id="edge17" class="edge">
<title>QueueService&#45;&gt;MusicAssistantKit</title>
<path fill="none" stroke="#666666" d="M1275.36,-130.71C1285.86,-124.53 1298.44,-118.33 1310.8,-115.13 1399.23,-92.29 2044.12,-129.02 2132.8,-107.13 2142.01,-104.86 2142.58,-99.65 2151.8,-97.38 2200.19,-85.46 3001.64,-105.48 3048.8,-89.38 3062.97,-84.55 3076.54,-75.43 3087.72,-66.23"/>
<polygon fill="#666666" stroke="#666666" points="3089.74,-69.12 3094.99,-59.92 3085.15,-63.83 3089.74,-69.12"/>
<text xml:space="preserve" text-anchor="middle" x="2187.8" y="-98.58" font-family="SF Pro" font-size="9.00">queue operations</text>
</g>
<!-- LibraryService -->
<g id="node12" class="node">
<title>LibraryService</title>
<path fill="#66bb6a" stroke="black" d="M1167.67,-167.13C1167.67,-167.13 1081.92,-167.13 1081.92,-167.13 1075.92,-167.13 1069.92,-161.13 1069.92,-155.13 1069.92,-155.13 1069.92,-143.13 1069.92,-143.13 1069.92,-137.13 1075.92,-131.13 1081.92,-131.13 1081.92,-131.13 1167.67,-131.13 1167.67,-131.13 1173.67,-131.13 1179.67,-137.13 1179.67,-143.13 1179.67,-143.13 1179.67,-155.13 1179.67,-155.13 1179.67,-161.13 1173.67,-167.13 1167.67,-167.13"/>
<text xml:space="preserve" text-anchor="middle" x="1124.8" y="-150.88" font-family="SF Pro" font-size="10.00" fill="white">LibraryService</text>
<text xml:space="preserve" text-anchor="middle" x="1124.8" y="-139.63" font-family="SF Pro" font-size="10.00" fill="white">Media Library Access</text>
</g>
<!-- LibraryCache -->
<g id="node14" class="node">
<title>LibraryCache</title>
<path fill="#81c784" stroke="black" d="M1087.55,-55.57C1087.55,-55.57 1016.05,-55.57 1016.05,-55.57 1010.05,-55.57 1004.05,-49.57 1004.05,-43.57 1004.05,-43.57 1004.05,-31.57 1004.05,-31.57 1004.05,-25.57 1010.05,-19.57 1016.05,-19.57 1016.05,-19.57 1087.55,-19.57 1087.55,-19.57 1093.55,-19.57 1099.55,-25.57 1099.55,-31.57 1099.55,-31.57 1099.55,-43.57 1099.55,-43.57 1099.55,-49.57 1093.55,-55.57 1087.55,-55.57"/>
<text xml:space="preserve" text-anchor="middle" x="1051.8" y="-39.32" font-family="SF Pro" font-size="10.00">LibraryCache</text>
<text xml:space="preserve" text-anchor="middle" x="1051.8" y="-28.07" font-family="SF Pro" font-size="10.00">Metadata Caching</text>
</g>
<!-- LibraryService&#45;&gt;LibraryCache -->
<g id="edge31" class="edge">
<title>LibraryService&#45;&gt;LibraryCache</title>
<path fill="none" stroke="#666666" d="M1100.9,-130.85C1092.89,-124.15 1084.45,-115.96 1078.3,-107.13 1069.84,-94.98 1063.6,-79.77 1059.31,-66.75"/>
<polygon fill="#666666" stroke="#666666" points="1062.75,-66.01 1056.48,-57.47 1056.05,-68.05 1062.75,-66.01"/>
<text xml:space="preserve" text-anchor="middle" x="1088.05" y="-98.58" font-family="SF Pro" font-size="9.00">uses</text>
</g>
<!-- Album -->
<g id="node33" class="node">
<title>Album</title>
<path fill="#f06292" stroke="black" d="M1880.92,-55.57C1880.92,-55.57 1784.67,-55.57 1784.67,-55.57 1778.67,-55.57 1772.67,-49.57 1772.67,-43.57 1772.67,-43.57 1772.67,-31.57 1772.67,-31.57 1772.67,-25.57 1778.67,-19.57 1784.67,-19.57 1784.67,-19.57 1880.92,-19.57 1880.92,-19.57 1886.92,-19.57 1892.92,-25.57 1892.92,-31.57 1892.92,-31.57 1892.92,-43.57 1892.92,-43.57 1892.92,-49.57 1886.92,-55.57 1880.92,-55.57"/>
<text xml:space="preserve" text-anchor="middle" x="1832.8" y="-39.32" font-family="SF Pro" font-size="10.00">Album</text>
<text xml:space="preserve" text-anchor="middle" x="1832.8" y="-28.07" font-family="SF Pro" font-size="10.00">id|title|artist|artworkURL</text>
</g>
<!-- LibraryService&#45;&gt;Album -->
<g id="edge26" class="edge">
<title>LibraryService&#45;&gt;Album</title>
<path fill="none" stroke="#666666" d="M1152.07,-130.68C1163.04,-124.58 1176.09,-118.43 1188.8,-115.13 1242.82,-101.11 1385.32,-119.22 1439.8,-107.13 1450.54,-104.75 1451.8,-99.74 1462.55,-97.38 1494.93,-90.28 1729.34,-99.83 1760.8,-89.38 1777.27,-83.91 1793.29,-73.31 1806.01,-63.2"/>
<polygon fill="#666666" stroke="#666666" points="1808.05,-66.06 1813.5,-56.97 1803.57,-60.68 1808.05,-66.06"/>
<text xml:space="preserve" text-anchor="middle" x="1477.17" y="-98.58" font-family="SF Pro" font-size="9.00">fetches</text>
</g>
<!-- Artist -->
<g id="node34" class="node">
<title>Artist</title>
<path fill="#f06292" stroke="black" d="M1952.8,-55.57C1952.8,-55.57 1922.8,-55.57 1922.8,-55.57 1916.8,-55.57 1910.8,-49.57 1910.8,-43.57 1910.8,-43.57 1910.8,-31.57 1910.8,-31.57 1910.8,-25.57 1916.8,-19.57 1922.8,-19.57 1922.8,-19.57 1952.8,-19.57 1952.8,-19.57 1958.8,-19.57 1964.8,-25.57 1964.8,-31.57 1964.8,-31.57 1964.8,-43.57 1964.8,-43.57 1964.8,-49.57 1958.8,-55.57 1952.8,-55.57"/>
<text xml:space="preserve" text-anchor="middle" x="1937.8" y="-39.32" font-family="SF Pro" font-size="10.00">Artist</text>
<text xml:space="preserve" text-anchor="middle" x="1937.8" y="-28.07" font-family="SF Pro" font-size="10.00">id|name</text>
</g>
<!-- LibraryService&#45;&gt;Artist -->
<g id="edge27" class="edge">
<title>LibraryService&#45;&gt;Artist</title>
<path fill="none" stroke="#666666" d="M1152.06,-130.64C1163.03,-124.53 1176.08,-118.4 1188.8,-115.13 1254.04,-98.39 1426,-121.55 1491.8,-107.13 1502.54,-104.78 1503.8,-99.71 1514.55,-97.38 1535.58,-92.84 1882.79,-99.46 1901.8,-89.38 1911.52,-84.23 1919.19,-75.15 1924.92,-66.08"/>
<polygon fill="#666666" stroke="#666666" points="1927.97,-67.8 1929.82,-57.36 1921.87,-64.37 1927.97,-67.8"/>
<text xml:space="preserve" text-anchor="middle" x="1529.17" y="-98.58" font-family="SF Pro" font-size="9.00">fetches</text>
</g>
<!-- Playlist -->
<g id="node35" class="node">
<title>Playlist</title>
<path fill="#f06292" stroke="black" d="M2255.3,-55.57C2255.3,-55.57 2200.3,-55.57 2200.3,-55.57 2194.3,-55.57 2188.3,-49.57 2188.3,-43.57 2188.3,-43.57 2188.3,-31.57 2188.3,-31.57 2188.3,-25.57 2194.3,-19.57 2200.3,-19.57 2200.3,-19.57 2255.3,-19.57 2255.3,-19.57 2261.3,-19.57 2267.3,-25.57 2267.3,-31.57 2267.3,-31.57 2267.3,-43.57 2267.3,-43.57 2267.3,-49.57 2261.3,-55.57 2255.3,-55.57"/>
<text xml:space="preserve" text-anchor="middle" x="2227.8" y="-39.32" font-family="SF Pro" font-size="10.00">Playlist</text>
<text xml:space="preserve" text-anchor="middle" x="2227.8" y="-28.07" font-family="SF Pro" font-size="10.00">id|name|tracks</text>
</g>
<!-- LibraryService&#45;&gt;Playlist -->
<g id="edge28" class="edge">
<title>LibraryService&#45;&gt;Playlist</title>
<path fill="none" stroke="#666666" d="M1151.73,-130.76C1162.77,-124.58 1175.95,-118.37 1188.8,-115.13 1238.26,-102.67 1598.36,-119.68 1647.8,-107.13 1656.9,-104.82 1657.44,-99.69 1666.55,-97.38 1694.2,-90.4 2153.7,-100.87 2179.8,-89.38 2191.67,-84.16 2201.99,-74.44 2209.99,-64.89"/>
<polygon fill="#666666" stroke="#666666" points="2212.64,-67.19 2216,-57.14 2207.11,-62.9 2212.64,-67.19"/>
<text xml:space="preserve" text-anchor="middle" x="1681.17" y="-98.58" font-family="SF Pro" font-size="9.00">fetches</text>
</g>
<!-- Radio -->
<g id="node36" class="node">
<title>Radio</title>
<path fill="#f06292" stroke="black" d="M2064.8,-55.57C2064.8,-55.57 1994.8,-55.57 1994.8,-55.57 1988.8,-55.57 1982.8,-49.57 1982.8,-43.57 1982.8,-43.57 1982.8,-31.57 1982.8,-31.57 1982.8,-25.57 1988.8,-19.57 1994.8,-19.57 1994.8,-19.57 2064.8,-19.57 2064.8,-19.57 2070.8,-19.57 2076.8,-25.57 2076.8,-31.57 2076.8,-31.57 2076.8,-43.57 2076.8,-43.57 2076.8,-49.57 2070.8,-55.57 2064.8,-55.57"/>
<text xml:space="preserve" text-anchor="middle" x="2029.8" y="-39.32" font-family="SF Pro" font-size="10.00">Radio</text>
<text xml:space="preserve" text-anchor="middle" x="2029.8" y="-28.07" font-family="SF Pro" font-size="10.00">Streaming Station</text>
</g>
<!-- LibraryService&#45;&gt;Radio -->
<g id="edge29" class="edge">
<title>LibraryService&#45;&gt;Radio</title>
<path fill="none" stroke="#666666" d="M1151.74,-130.79C1162.78,-124.62 1175.96,-118.4 1188.8,-115.13 1265.27,-95.66 1466.69,-123.87 1543.8,-107.13 1554.55,-104.8 1555.8,-99.7 1566.55,-97.38 1610.79,-87.85 1931.74,-106.1 1973.8,-89.38 1987.1,-84.1 1999.24,-74.09 2008.78,-64.35"/>
<polygon fill="#666666" stroke="#666666" points="2011.26,-66.83 2015.44,-57.09 2006.1,-62.09 2011.26,-66.83"/>
<text xml:space="preserve" text-anchor="middle" x="1581.17" y="-98.58" font-family="SF Pro" font-size="9.00">fetches</text>
</g>
<!-- Genre -->
<g id="node37" class="node">
<title>Genre</title>
<path fill="#f06292" stroke="black" d="M2158.42,-55.57C2158.42,-55.57 2107.17,-55.57 2107.17,-55.57 2101.17,-55.57 2095.17,-49.57 2095.17,-43.57 2095.17,-43.57 2095.17,-31.57 2095.17,-31.57 2095.17,-25.57 2101.17,-19.57 2107.17,-19.57 2107.17,-19.57 2158.42,-19.57 2158.42,-19.57 2164.42,-19.57 2170.42,-25.57 2170.42,-31.57 2170.42,-31.57 2170.42,-43.57 2170.42,-43.57 2170.42,-49.57 2164.42,-55.57 2158.42,-55.57"/>
<text xml:space="preserve" text-anchor="middle" x="2132.8" y="-39.32" font-family="SF Pro" font-size="10.00">Genre</text>
<text xml:space="preserve" text-anchor="middle" x="2132.8" y="-28.07" font-family="SF Pro" font-size="10.00">Classification</text>
</g>
<!-- LibraryService&#45;&gt;Genre -->
<g id="edge30" class="edge">
<title>LibraryService&#45;&gt;Genre</title>
<path fill="none" stroke="#666666" d="M1151.74,-130.77C1162.77,-124.6 1175.95,-118.38 1188.8,-115.13 1276.5,-92.94 1507.37,-126.19 1595.8,-107.13 1606.55,-104.82 1607.79,-99.69 1618.55,-97.38 1643.94,-91.95 2062.1,-99.99 2085.8,-89.38 2097.52,-84.14 2107.64,-74.42 2115.46,-64.87"/>
<polygon fill="#666666" stroke="#666666" points="2118.08,-67.22 2121.32,-57.13 2112.49,-63 2118.08,-67.22"/>
<text xml:space="preserve" text-anchor="middle" x="1633.17" y="-98.58" font-family="SF Pro" font-size="9.00">fetches</text>
</g>
<!-- LibraryError -->
<g id="node43" class="node">
<title>LibraryError</title>
<path fill="#ef5350" stroke="black" d="M1548.05,-55.57C1548.05,-55.57 1497.55,-55.57 1497.55,-55.57 1491.55,-55.57 1485.55,-49.57 1485.55,-43.57 1485.55,-43.57 1485.55,-31.57 1485.55,-31.57 1485.55,-25.57 1491.55,-19.57 1497.55,-19.57 1497.55,-19.57 1548.05,-19.57 1548.05,-19.57 1554.05,-19.57 1560.05,-25.57 1560.05,-31.57 1560.05,-31.57 1560.05,-43.57 1560.05,-43.57 1560.05,-49.57 1554.05,-55.57 1548.05,-55.57"/>
<text xml:space="preserve" text-anchor="middle" x="1522.8" y="-39.32" font-family="SF Pro" font-size="10.00" fill="white">LibraryError</text>
<text xml:space="preserve" text-anchor="middle" x="1522.8" y="-28.07" font-family="SF Pro" font-size="10.00" fill="white">Library Errors</text>
</g>
<!-- LibraryService&#45;&gt;LibraryError -->
<g id="edge34" class="edge">
<title>LibraryService&#45;&gt;LibraryError</title>
<path fill="none" stroke="#666666" d="M1152.79,-130.64C1163.64,-124.69 1176.42,-118.66 1188.8,-115.13 1232.11,-102.8 1246.48,-119.43 1289.8,-107.13 1298.93,-104.54 1299.63,-99.84 1308.8,-97.38 1344.26,-87.9 1440.37,-104.55 1473.8,-89.38 1485.64,-84.01 1496.08,-74.36 1504.25,-64.91"/>
<polygon fill="#666666" stroke="#666666" points="1506.89,-67.22 1510.41,-57.23 1501.42,-62.84 1506.89,-67.22"/>
<text xml:space="preserve" text-anchor="middle" x="1322.3" y="-98.58" font-family="SF Pro" font-size="9.00">throws</text>
</g>
<!-- LibraryService&#45;&gt;AppLogger -->
<g id="edge66" class="edge">
<title>LibraryService&#45;&gt;AppLogger</title>
<path fill="none" stroke="#666666" d="M1097.15,-130.73C1086.24,-124.72 1073.32,-118.62 1060.8,-115.13 1009.19,-100.78 991.34,-124.14 940.55,-107.13 925.38,-102.06 893.02,-80.15 868.26,-62.44"/>
<polygon fill="#666666" stroke="#666666" points="870.58,-59.8 860.42,-56.79 866.49,-65.48 870.58,-59.8"/>
<text xml:space="preserve" text-anchor="middle" x="949.17" y="-98.58" font-family="SF Pro" font-size="9.00">logs</text>
</g>
<!-- LibraryService&#45;&gt;MusicAssistantKit -->
<g id="edge18" class="edge">
<title>LibraryService&#45;&gt;MusicAssistantKit</title>
<path fill="none" stroke="#666666" d="M1151.72,-130.7C1162.75,-124.52 1175.94,-118.32 1188.8,-115.13 1283.07,-91.8 1968.57,-130.63 2062.8,-107.13 2071.91,-104.86 2072.43,-99.65 2081.55,-97.38 2133.7,-84.41 2997.94,-106.72 3048.8,-89.38 3062.97,-84.55 3076.55,-75.43 3087.72,-66.24"/>
<polygon fill="#666666" stroke="#666666" points="3089.74,-69.12 3095,-59.92 3085.15,-63.84 3089.74,-69.12"/>
<text xml:space="preserve" text-anchor="middle" x="2105.17" y="-98.58" font-family="SF Pro" font-size="9.00">fetch library</text>
</g>
<!-- ImageCacheService -->
<g id="node13" class="node">
<title>ImageCacheService</title>
<path fill="#66bb6a" stroke="black" d="M1040.05,-167.13C1040.05,-167.13 959.55,-167.13 959.55,-167.13 953.55,-167.13 947.55,-161.13 947.55,-155.13 947.55,-155.13 947.55,-143.13 947.55,-143.13 947.55,-137.13 953.55,-131.13 959.55,-131.13 959.55,-131.13 1040.05,-131.13 1040.05,-131.13 1046.05,-131.13 1052.05,-137.13 1052.05,-143.13 1052.05,-143.13 1052.05,-155.13 1052.05,-155.13 1052.05,-161.13 1046.05,-167.13 1040.05,-167.13"/>
<text xml:space="preserve" text-anchor="middle" x="999.8" y="-150.88" font-family="SF Pro" font-size="10.00" fill="white">ImageCacheService</text>
<text xml:space="preserve" text-anchor="middle" x="999.8" y="-139.63" font-family="SF Pro" font-size="10.00" fill="white">Artwork Caching</text>
</g>
<!-- NowPlayingVM -->
<g id="node16" class="node">
<title>NowPlayingVM</title>
<path fill="#ff9800" stroke="black" d="M1192.05,-277.76C1192.05,-277.76 1099.55,-277.76 1099.55,-277.76 1093.55,-277.76 1087.55,-271.76 1087.55,-265.76 1087.55,-265.76 1087.55,-248.01 1087.55,-248.01 1087.55,-242.01 1093.55,-236.01 1099.55,-236.01 1099.55,-236.01 1192.05,-236.01 1192.05,-236.01 1198.05,-236.01 1204.05,-242.01 1204.05,-248.01 1204.05,-248.01 1204.05,-265.76 1204.05,-265.76 1204.05,-271.76 1198.05,-277.76 1192.05,-277.76"/>
<text xml:space="preserve" text-anchor="middle" x="1145.8" y="-264.26" font-family="SF Pro" font-size="10.00" fill="white">NowPlayingViewModel</text>
<text xml:space="preserve" text-anchor="middle" x="1145.8" y="-253.01" font-family="SF Pro" font-size="10.00" fill="white">Now Playing UI State</text>
<text xml:space="preserve" text-anchor="middle" x="1145.8" y="-241.76" font-family="SF Pro" font-size="10.00" fill="white">@ObservableObject</text>
</g>
<!-- NowPlayingVM&#45;&gt;PlayerService -->
<g id="edge13" class="edge">
<title>NowPlayingVM&#45;&gt;PlayerService</title>
<path fill="none" stroke="#ff9800" stroke-width="2" d="M1172.27,-235.65C1186.83,-225.64 1205.68,-214.4 1224.3,-208.26 1260.96,-196.16 1274.22,-212.62 1310.8,-200.26 1326.67,-194.89 1342.61,-185.83 1356.05,-176.86"/>
<polygon fill="#ff9800" stroke="#ff9800" stroke-width="2" points="1356.64,-180.71 1362.86,-172.14 1352.65,-174.96 1356.64,-180.71"/>
<text xml:space="preserve" text-anchor="middle" x="1270.05" y="-209.46" font-family="SF Pro" font-size="9.00">observes via Combine</text>
</g>
<!-- QueueVM -->
<g id="node17" class="node">
<title>QueueVM</title>
<path fill="#ffb74d" stroke="black" d="M934.05,-277.76C934.05,-277.76 853.55,-277.76 853.55,-277.76 847.55,-277.76 841.55,-271.76 841.55,-265.76 841.55,-265.76 841.55,-248.01 841.55,-248.01 841.55,-242.01 847.55,-236.01 853.55,-236.01 853.55,-236.01 934.05,-236.01 934.05,-236.01 940.05,-236.01 946.05,-242.01 946.05,-248.01 946.05,-248.01 946.05,-265.76 946.05,-265.76 946.05,-271.76 940.05,-277.76 934.05,-277.76"/>
<text xml:space="preserve" text-anchor="middle" x="893.8" y="-264.26" font-family="SF Pro" font-size="10.00">QueueViewModel</text>
<text xml:space="preserve" text-anchor="middle" x="893.8" y="-253.01" font-family="SF Pro" font-size="10.00">Queue UI State</text>
<text xml:space="preserve" text-anchor="middle" x="893.8" y="-241.76" font-family="SF Pro" font-size="10.00">@ObservableObject</text>
</g>
<!-- QueueVM&#45;&gt;QueueService -->
<g id="edge14" class="edge">
<title>QueueVM&#45;&gt;QueueService</title>
<path fill="none" stroke="#666666" d="M934.93,-235.65C941.79,-232.78 948.91,-230.1 955.8,-228.01 981.24,-220.27 989.14,-225.01 1014.8,-218.01 1026.5,-214.81 1028.43,-210.78 1040.3,-208.26 1072.62,-201.39 1158,-212.23 1188.8,-200.26 1202.77,-194.83 1215.94,-184.89 1226.44,-175.28"/>
<polygon fill="#666666" stroke="#666666" points="1228.75,-177.92 1233.5,-168.45 1223.88,-172.89 1228.75,-177.92"/>
<text xml:space="preserve" text-anchor="middle" x="1059.05" y="-209.46" font-family="SF Pro" font-size="9.00">observes</text>
</g>
<!-- LibraryVM -->
<g id="node18" class="node">
<title>LibraryVM</title>
<path fill="#ffb74d" stroke="black" d="M1057.05,-277.76C1057.05,-277.76 976.55,-277.76 976.55,-277.76 970.55,-277.76 964.55,-271.76 964.55,-265.76 964.55,-265.76 964.55,-248.01 964.55,-248.01 964.55,-242.01 970.55,-236.01 976.55,-236.01 976.55,-236.01 1057.05,-236.01 1057.05,-236.01 1063.05,-236.01 1069.05,-242.01 1069.05,-248.01 1069.05,-248.01 1069.05,-265.76 1069.05,-265.76 1069.05,-271.76 1063.05,-277.76 1057.05,-277.76"/>
<text xml:space="preserve" text-anchor="middle" x="1016.8" y="-264.26" font-family="SF Pro" font-size="10.00">LibraryViewModel</text>
<text xml:space="preserve" text-anchor="middle" x="1016.8" y="-253.01" font-family="SF Pro" font-size="10.00">Library UI State</text>
<text xml:space="preserve" text-anchor="middle" x="1016.8" y="-241.76" font-family="SF Pro" font-size="10.00">@ObservableObject</text>
</g>
<!-- LibraryVM&#45;&gt;LibraryService -->
<g id="edge15" class="edge">
<title>LibraryVM&#45;&gt;LibraryService</title>
<path fill="none" stroke="#666666" d="M1058.43,-235.63C1066.7,-230.55 1074.93,-224.62 1081.8,-218.01 1093.85,-206.4 1104.04,-190.77 1111.48,-177.44"/>
<polygon fill="#666666" stroke="#666666" points="1114.53,-179.16 1116.12,-168.69 1108.34,-175.88 1114.53,-179.16"/>
<text xml:space="preserve" text-anchor="middle" x="1109.43" y="-209.46" font-family="SF Pro" font-size="9.00">observes</text>
</g>
<!-- MainWindow&#45;&gt;IntentHelper -->
<g id="edge11" class="edge">
<title>MainWindow&#45;&gt;IntentHelper</title>
<path fill="none" stroke="#9c27b0" stroke-dasharray="5,2" d="M643.46,-452.88C651.74,-449.95 660.45,-447.25 668.8,-445.33 731.89,-430.77 749.64,-439.99 813.8,-431.33 859.4,-425.17 881.17,-443.88 915.8,-413.58 940.28,-392.15 911.95,-363.52 937.8,-343.76 957.63,-328.59 1361.95,-328.13 1386.8,-325.76 1439.16,-320.75 1453.11,-322.05 1503.8,-308.01 1529.52,-300.89 1557.1,-289.86 1579.53,-279.96"/>
<polygon fill="#9c27b0" stroke="#9c27b0" points="1580.7,-283.27 1588.38,-275.98 1577.83,-276.89 1580.7,-283.27"/>
<text xml:space="preserve" text-anchor="middle" x="978.3" y="-361.65" font-family="SF Pro" font-size="9.00">wires PlayerService</text>
</g>
<!-- MainWindow&#45;&gt;NowPlayingVM -->
<g id="edge5" class="edge">
<title>MainWindow&#45;&gt;NowPlayingVM</title>
<path fill="none" stroke="#666666" d="M645.45,-452.95C653.16,-450.19 661.16,-447.53 668.8,-445.33 735.53,-426.07 766.09,-455.04 821.8,-413.58 850.1,-392.51 830.33,-363.53 859.55,-343.76 888.5,-324.17 981.52,-332.59 1015.8,-325.76 1043.91,-320.16 1052.08,-320.66 1077.8,-308.01 1090.22,-301.9 1102.72,-293.49 1113.56,-285.29"/>
<polygon fill="#666666" stroke="#666666" points="1115.69,-288.07 1121.42,-279.15 1111.38,-282.55 1115.69,-288.07"/>
<text xml:space="preserve" text-anchor="middle" x="887.67" y="-361.65" font-family="SF Pro" font-size="9.00">@StateObject</text>
</g>
<!-- MainWindow&#45;&gt;QueueVM -->
<g id="edge6" class="edge">
<title>MainWindow&#45;&gt;QueueVM</title>
<path fill="none" stroke="#666666" d="M554.45,-469.89C462.09,-468.35 251.72,-461.52 77.8,-431.33 48.61,-426.26 31.49,-437.15 13.55,-413.58 -5.25,-388.88 -3.5,-369.69 13.55,-343.76 30.64,-317.77 47.37,-322.47 77.8,-316.01 118.23,-307.42 782.43,-320.6 821.8,-308.01 836.71,-303.24 851.26,-294.22 863.33,-285.13"/>
<polygon fill="#666666" stroke="#666666" points="865.18,-288.12 870.85,-279.17 860.84,-282.64 865.18,-288.12"/>
<text xml:space="preserve" text-anchor="middle" x="41.67" y="-361.65" font-family="SF Pro" font-size="9.00">@StateObject</text>
</g>
<!-- MainWindow&#45;&gt;LibraryVM -->
<g id="edge7" class="edge">
<title>MainWindow&#45;&gt;LibraryVM</title>
<path fill="none" stroke="#666666" d="M554.63,-468.53C435.12,-463.5 127.75,-447.36 97.55,-413.58 76.87,-390.44 81.17,-370.11 97.55,-343.76 112.27,-320.08 126.68,-322.48 153.8,-316.01 197.09,-305.68 912.92,-323.06 954.8,-308.01 967.8,-303.34 980.08,-294.7 990.23,-285.88"/>
<polygon fill="#666666" stroke="#666666" points="992.48,-288.57 997.46,-279.22 987.73,-283.43 992.48,-288.57"/>
<text xml:space="preserve" text-anchor="middle" x="125.67" y="-361.65" font-family="SF Pro" font-size="9.00">@StateObject</text>
</g>
<!-- NowPlayingView -->
<g id="node21" class="node">
<title>NowPlayingView</title>
<path fill="lightgrey" stroke="black" d="M390.05,-383.33C390.05,-383.33 321.55,-383.33 321.55,-383.33 315.55,-383.33 309.55,-377.33 309.55,-371.33 309.55,-371.33 309.55,-359.33 309.55,-359.33 309.55,-353.33 315.55,-347.33 321.55,-347.33 321.55,-347.33 390.05,-347.33 390.05,-347.33 396.05,-347.33 402.05,-353.33 402.05,-359.33 402.05,-359.33 402.05,-371.33 402.05,-371.33 402.05,-377.33 396.05,-383.33 390.05,-383.33"/>
<text xml:space="preserve" text-anchor="middle" x="355.8" y="-367.08" font-family="SF Pro" font-size="10.00">NowPlayingView</text>
<text xml:space="preserve" text-anchor="middle" x="355.8" y="-355.83" font-family="SF Pro" font-size="10.00">Playback Display</text>
</g>
<!-- MainWindow&#45;&gt;NowPlayingView -->
<g id="edge49" class="edge">
<title>MainWindow&#45;&gt;NowPlayingView</title>
<path fill="none" stroke="#666666" d="M554.51,-462.06C514.48,-453.73 456.51,-438.5 410.8,-413.58 400.02,-407.7 389.48,-399.44 380.55,-391.48"/>
<polygon fill="#666666" stroke="#666666" points="383.02,-388.99 373.32,-384.73 378.25,-394.11 383.02,-388.99"/>
</g>
<!-- QueueView -->
<g id="node22" class="node">
<title>QueueView</title>
<path fill="lightgrey" stroke="black" d="M798.05,-383.33C798.05,-383.33 741.55,-383.33 741.55,-383.33 735.55,-383.33 729.55,-377.33 729.55,-371.33 729.55,-371.33 729.55,-359.33 729.55,-359.33 729.55,-353.33 735.55,-347.33 741.55,-347.33 741.55,-347.33 798.05,-347.33 798.05,-347.33 804.05,-347.33 810.05,-353.33 810.05,-359.33 810.05,-359.33 810.05,-371.33 810.05,-371.33 810.05,-377.33 804.05,-383.33 798.05,-383.33"/>
<text xml:space="preserve" text-anchor="middle" x="769.8" y="-367.08" font-family="SF Pro" font-size="10.00">QueueView</text>
<text xml:space="preserve" text-anchor="middle" x="769.8" y="-355.83" font-family="SF Pro" font-size="10.00">Queue Display</text>
</g>
<!-- MainWindow&#45;&gt;QueueView -->
<g id="edge50" class="edge">
<title>MainWindow&#45;&gt;QueueView</title>
<path fill="none" stroke="#666666" d="M646.9,-452.91C669.98,-443.01 697.94,-429.42 720.8,-413.58 729.93,-407.25 738.96,-399.2 746.74,-391.54"/>
<polygon fill="#666666" stroke="#666666" points="749.07,-394.16 753.56,-384.57 744.07,-389.26 749.07,-394.16"/>
</g>
<!-- LibraryView -->
<g id="node23" class="node">
<title>LibraryView</title>
<path fill="lightgrey" stroke="black" d="M279.55,-383.33C279.55,-383.33 178.05,-383.33 178.05,-383.33 172.05,-383.33 166.05,-377.33 166.05,-371.33 166.05,-371.33 166.05,-359.33 166.05,-359.33 166.05,-353.33 172.05,-347.33 178.05,-347.33 178.05,-347.33 279.55,-347.33 279.55,-347.33 285.55,-347.33 291.55,-353.33 291.55,-359.33 291.55,-359.33 291.55,-371.33 291.55,-371.33 291.55,-377.33 285.55,-383.33 279.55,-383.33"/>
<text xml:space="preserve" text-anchor="middle" x="228.8" y="-367.08" font-family="SF Pro" font-size="10.00">LibraryBrowseView</text>
<text xml:space="preserve" text-anchor="middle" x="228.8" y="-355.83" font-family="SF Pro" font-size="10.00">Browse | Artists | Albums</text>
</g>
<!-- MainWindow&#45;&gt;LibraryView -->
<g id="edge51" class="edge">
<title>MainWindow&#45;&gt;LibraryView</title>
<path fill="none" stroke="#666666" d="M554.56,-467.18C493.89,-461.86 386.24,-448.05 300.8,-413.58 286.36,-407.75 271.75,-398.84 259.5,-390.32"/>
<polygon fill="#666666" stroke="#666666" points="261.62,-387.54 251.46,-384.53 257.53,-393.22 261.62,-387.54"/>
</g>
<!-- SidebarView -->
<g id="node24" class="node">
<title>SidebarView</title>
<path fill="lightgrey" stroke="black" d="M699.42,-383.33C699.42,-383.33 636.17,-383.33 636.17,-383.33 630.17,-383.33 624.17,-377.33 624.17,-371.33 624.17,-371.33 624.17,-359.33 624.17,-359.33 624.17,-353.33 630.17,-347.33 636.17,-347.33 636.17,-347.33 699.42,-347.33 699.42,-347.33 705.42,-347.33 711.42,-353.33 711.42,-359.33 711.42,-359.33 711.42,-371.33 711.42,-371.33 711.42,-377.33 705.42,-383.33 699.42,-383.33"/>
<text xml:space="preserve" text-anchor="middle" x="667.8" y="-367.08" font-family="SF Pro" font-size="10.00">SidebarView</text>
<text xml:space="preserve" text-anchor="middle" x="667.8" y="-355.83" font-family="SF Pro" font-size="10.00">Player Selection</text>
</g>
<!-- MainWindow&#45;&gt;SidebarView -->
<g id="edge52" class="edge">
<title>MainWindow&#45;&gt;SidebarView</title>
<path fill="none" stroke="#666666" d="M612.7,-453.15C623.06,-436.82 638.81,-412 650.82,-393.07"/>
<polygon fill="#666666" stroke="#666666" points="653.67,-395.12 656.07,-384.8 647.76,-391.37 653.67,-395.12"/>
</g>
<!-- ErrorBanner -->
<g id="node30" class="node">
<title>ErrorBanner</title>
<path fill="lightgrey" stroke="black" d="M594.3,-383.33C594.3,-383.33 545.3,-383.33 545.3,-383.33 539.3,-383.33 533.3,-377.33 533.3,-371.33 533.3,-371.33 533.3,-359.33 533.3,-359.33 533.3,-353.33 539.3,-347.33 545.3,-347.33 545.3,-347.33 594.3,-347.33 594.3,-347.33 600.3,-347.33 606.3,-353.33 606.3,-359.33 606.3,-359.33 606.3,-371.33 606.3,-371.33 606.3,-377.33 600.3,-383.33 594.3,-383.33"/>
<text xml:space="preserve" text-anchor="middle" x="569.8" y="-367.08" font-family="SF Pro" font-size="10.00">ErrorBanner</text>
<text xml:space="preserve" text-anchor="middle" x="569.8" y="-355.83" font-family="SF Pro" font-size="10.00">Error Display</text>
</g>
<!-- MainWindow&#45;&gt;ErrorBanner -->
<g id="edge75" class="edge">
<title>MainWindow&#45;&gt;ErrorBanner</title>
<path fill="none" stroke="#666666" d="M596.51,-453.15C591.6,-437.19 584.2,-413.14 578.43,-394.39"/>
<polygon fill="#666666" stroke="#666666" points="581.82,-393.5 575.54,-384.97 575.13,-395.56 581.82,-393.5"/>
</g>
<!-- RoonWindow&#45;&gt;IntentHelper -->
<g id="edge12" class="edge">
<title>RoonWindow&#45;&gt;IntentHelper</title>
<path fill="none" stroke="#9c27b0" stroke-dasharray="5,2" d="M817.87,-466.57C943.36,-459.25 1201.32,-441.3 1286.8,-413.58 1398.55,-377.32 1522.14,-314.27 1584.69,-280.6"/>
<polygon fill="#9c27b0" stroke="#9c27b0" points="1586.09,-283.82 1593.22,-275.99 1582.76,-277.67 1586.09,-283.82"/>
<text xml:space="preserve" text-anchor="middle" x="1495.26" y="-361.65" font-family="SF Pro" font-size="9.00">wires PlayerService</text>
</g>
<!-- RoonWindow&#45;&gt;NowPlayingVM -->
<g id="edge8" class="edge">
<title>RoonWindow&#45;&gt;NowPlayingVM</title>
<path fill="none" stroke="#666666" d="M818.02,-463.11C888.75,-454.59 991.75,-438.36 1022.8,-413.58 1049.44,-392.31 1034.71,-371.48 1054.55,-343.76 1070.22,-321.87 1092.06,-301.07 1110.45,-285.43"/>
<polygon fill="#666666" stroke="#666666" points="1112.54,-288.24 1117.99,-279.15 1108.07,-282.86 1112.54,-288.24"/>
<text xml:space="preserve" text-anchor="middle" x="1082.67" y="-361.65" font-family="SF Pro" font-size="9.00">@StateObject</text>
</g>
<!-- RoonWindow&#45;&gt;QueueVM -->
<g id="edge9" class="edge">
<title>RoonWindow&#45;&gt;QueueVM</title>
<path fill="none" stroke="#666666" d="M818.04,-469.88C913.7,-467.62 1077.35,-457.26 1114.8,-413.58 1244.16,-262.67 992.23,-379.21 920.8,-325.76 909.14,-317.03 902.51,-302.48 898.74,-289.08"/>
<polygon fill="#666666" stroke="#666666" points="902.23,-288.66 896.54,-279.72 895.42,-290.25 902.23,-288.66"/>
<text xml:space="preserve" text-anchor="middle" x="1179.28" y="-361.65" font-family="SF Pro" font-size="9.00">@StateObject</text>
</g>
<!-- RoonWindow&#45;&gt;LibraryVM -->
<g id="edge10" class="edge">
<title>RoonWindow&#45;&gt;LibraryVM</title>
<path fill="none" stroke="#666666" d="M818.02,-466.93C941.51,-460.2 1186.94,-443.24 1211.8,-413.58 1231.73,-389.79 1230.68,-368.38 1211.8,-343.76 1174.56,-295.18 1133.34,-335.8 1078.8,-308.01 1067.18,-302.09 1055.73,-293.74 1045.88,-285.56"/>
<polygon fill="#666666" stroke="#666666" points="1048.33,-283.05 1038.48,-279.15 1043.74,-288.34 1048.33,-283.05"/>
<text xml:space="preserve" text-anchor="middle" x="1254.48" y="-361.65" font-family="SF Pro" font-size="9.00">@StateObject</text>
</g>
<!-- RoonWindow&#45;&gt;NowPlayingView -->
<g id="edge53" class="edge">
<title>RoonWindow&#45;&gt;NowPlayingView</title>
<path fill="none" stroke="#666666" d="M688.48,-452.86C678.3,-450.14 667.78,-447.52 657.8,-445.33 619.97,-437.02 609.93,-438.07 571.8,-431.33 549.07,-427.3 543.68,-424.58 520.8,-421.58 496.5,-418.38 433.46,-422.92 410.8,-413.58 398.81,-408.63 387.55,-400.01 378.39,-391.47"/>
<polygon fill="#666666" stroke="#666666" points="380.93,-389.06 371.37,-384.5 376,-394.03 380.93,-389.06"/>
</g>
<!-- RoonWindow&#45;&gt;QueueView -->
<g id="edge54" class="edge">
<title>RoonWindow&#45;&gt;QueueView</title>
<path fill="none" stroke="#666666" d="M751.43,-453.15C754.79,-437.27 759.85,-413.37 763.81,-394.66"/>
<polygon fill="#666666" stroke="#666666" points="767.2,-395.51 765.85,-385.01 760.35,-394.06 767.2,-395.51"/>
</g>
<!-- RoonWindow&#45;&gt;LibraryView -->
<g id="edge55" class="edge">
<title>RoonWindow&#45;&gt;LibraryView</title>
<path fill="none" stroke="#666666" d="M691.03,-452.87C680.08,-449.99 668.65,-447.3 657.8,-445.33 618.62,-438.2 338.41,-426.66 300.8,-413.58 285.72,-408.33 270.69,-399.24 258.3,-390.43"/>
<polygon fill="#666666" stroke="#666666" points="260.71,-387.86 250.59,-384.71 256.54,-393.48 260.71,-387.86"/>
</g>
<!-- RoonWindow&#45;&gt;SidebarView -->
<g id="edge56" class="edge">
<title>RoonWindow&#45;&gt;SidebarView</title>
<path fill="none" stroke="#666666" d="M734.59,-453.15C721.91,-436.67 702.58,-411.54 687.97,-392.55"/>
<polygon fill="#666666" stroke="#666666" points="690.82,-390.52 681.95,-384.72 685.27,-394.78 690.82,-390.52"/>
</g>
<!-- MiniPlayerBar -->
<g id="node25" class="node">
<title>MiniPlayerBar</title>
<path fill="lightgrey" stroke="black" d="M503.55,-383.33C503.55,-383.33 432.05,-383.33 432.05,-383.33 426.05,-383.33 420.05,-377.33 420.05,-371.33 420.05,-371.33 420.05,-359.33 420.05,-359.33 420.05,-353.33 426.05,-347.33 432.05,-347.33 432.05,-347.33 503.55,-347.33 503.55,-347.33 509.55,-347.33 515.55,-353.33 515.55,-359.33 515.55,-359.33 515.55,-371.33 515.55,-371.33 515.55,-377.33 509.55,-383.33 503.55,-383.33"/>
<text xml:space="preserve" text-anchor="middle" x="467.8" y="-367.08" font-family="SF Pro" font-size="10.00">MiniPlayerBar</text>
<text xml:space="preserve" text-anchor="middle" x="467.8" y="-355.83" font-family="SF Pro" font-size="10.00">Compact Controls</text>
</g>
<!-- RoonWindow&#45;&gt;MiniPlayerBar -->
<g id="edge57" class="edge">
<title>RoonWindow&#45;&gt;MiniPlayerBar</title>
<path fill="none" stroke="#666666" d="M684.86,-452.83C675.78,-450.31 666.55,-447.75 657.8,-445.33 619.58,-434.74 610.5,-430.19 571.8,-421.58 551.12,-416.97 544.06,-422.42 524.8,-413.58 512.94,-408.13 501.52,-399.57 492.05,-391.22"/>
<polygon fill="#666666" stroke="#666666" points="494.45,-388.67 484.74,-384.42 489.68,-393.8 494.45,-388.67"/>
</g>
<!-- RoonWindow&#45;&gt;ErrorBanner -->
<g id="edge76" class="edge">
<title>RoonWindow&#45;&gt;ErrorBanner</title>
<path fill="none" stroke="#666666" d="M693.44,-452.87C668.28,-443.38 638.73,-430.18 614.8,-413.58 606.24,-407.63 598.02,-399.86 591,-392.34"/>
<polygon fill="#666666" stroke="#666666" points="593.63,-390.03 584.37,-384.88 588.4,-394.68 593.63,-390.03"/>
</g>
<!-- NowPlayingView&#45;&gt;NowPlayingVM -->
<g id="edge61" class="edge">
<title>NowPlayingView&#45;&gt;NowPlayingVM</title>
<path fill="none" stroke="#666666" stroke-dasharray="1,5" d="M409.26,-344.08C409.77,-343.97 410.29,-343.86 410.8,-343.76 631.93,-299.7 697.67,-374.57 917.8,-325.76 928.64,-323.35 929.99,-318.54 940.8,-316.01 970.49,-309.07 1049.12,-318.37 1077.8,-308.01 1095.45,-301.63 1112.45,-289.1 1125.04,-278.16"/>
<polygon fill="#666666" stroke="#666666" points="408.61,-340.63 399.81,-346.52 410.37,-347.4 408.61,-340.63"/>
<text xml:space="preserve" text-anchor="middle" x="978.3" y="-317.21" font-family="SF Pro" font-size="9.00">@ObservedObject</text>
</g>
<!-- PlayerControls -->
<g id="node26" class="node">
<title>PlayerControls</title>
<path fill="lightgrey" stroke="black" d="M494.92,-274.88C494.92,-274.88 416.67,-274.88 416.67,-274.88 410.67,-274.88 404.67,-268.88 404.67,-262.88 404.67,-262.88 404.67,-250.88 404.67,-250.88 404.67,-244.88 410.67,-238.88 416.67,-238.88 416.67,-238.88 494.92,-238.88 494.92,-238.88 500.92,-238.88 506.92,-244.88 506.92,-250.88 506.92,-250.88 506.92,-262.88 506.92,-262.88 506.92,-268.88 500.92,-274.88 494.92,-274.88"/>
<text xml:space="preserve" text-anchor="middle" x="455.8" y="-258.63" font-family="SF Pro" font-size="10.00">PlayerControlsView</text>
<text xml:space="preserve" text-anchor="middle" x="455.8" y="-247.38" font-family="SF Pro" font-size="10.00">Transport Controls</text>
</g>
<!-- NowPlayingView&#45;&gt;PlayerControls -->
<g id="edge46" class="edge">
<title>NowPlayingView&#45;&gt;PlayerControls</title>
<path fill="none" stroke="#666666" d="M371.87,-347.22C388.03,-330.02 413.14,-303.29 431.69,-283.55"/>
<polygon fill="#666666" stroke="#666666" points="434.11,-286.08 438.4,-276.4 429.01,-281.29 434.11,-286.08"/>
</g>
<!-- AlbumArt -->
<g id="node27" class="node">
<title>AlbumArt</title>
<path fill="lightgrey" stroke="black" d="M598.67,-274.88C598.67,-274.88 536.92,-274.88 536.92,-274.88 530.92,-274.88 524.92,-268.88 524.92,-262.88 524.92,-262.88 524.92,-250.88 524.92,-250.88 524.92,-244.88 530.92,-238.88 536.92,-238.88 536.92,-238.88 598.67,-238.88 598.67,-238.88 604.67,-238.88 610.67,-244.88 610.67,-250.88 610.67,-250.88 610.67,-262.88 610.67,-262.88 610.67,-268.88 604.67,-274.88 598.67,-274.88"/>
<text xml:space="preserve" text-anchor="middle" x="567.8" y="-258.63" font-family="SF Pro" font-size="10.00">AlbumArtView</text>
<text xml:space="preserve" text-anchor="middle" x="567.8" y="-247.38" font-family="SF Pro" font-size="10.00">Artwork Display</text>
</g>
<!-- NowPlayingView&#45;&gt;AlbumArt -->
<g id="edge47" class="edge">
<title>NowPlayingView&#45;&gt;AlbumArt</title>
<path fill="none" stroke="#666666" d="M402.27,-346.84C405.16,-345.79 408.01,-344.75 410.8,-343.76 457.22,-327.18 473.71,-333.67 515.8,-308.01 526.67,-301.38 537.1,-292.12 545.73,-283.37"/>
<polygon fill="#666666" stroke="#666666" points="548.05,-286 552.36,-276.33 542.96,-281.2 548.05,-286"/>
</g>
<!-- ProgressBar -->
<g id="node29" class="node">
<title>ProgressBar</title>
<path fill="lightgrey" stroke="black" d="M375.05,-274.88C375.05,-274.88 288.55,-274.88 288.55,-274.88 282.55,-274.88 276.55,-268.88 276.55,-262.88 276.55,-262.88 276.55,-250.88 276.55,-250.88 276.55,-244.88 282.55,-238.88 288.55,-238.88 288.55,-238.88 375.05,-238.88 375.05,-238.88 381.05,-238.88 387.05,-244.88 387.05,-250.88 387.05,-250.88 387.05,-262.88 387.05,-262.88 387.05,-268.88 381.05,-274.88 375.05,-274.88"/>
<text xml:space="preserve" text-anchor="middle" x="331.8" y="-258.63" font-family="SF Pro" font-size="10.00">SeekableProgressBar</text>
<text xml:space="preserve" text-anchor="middle" x="331.8" y="-247.38" font-family="SF Pro" font-size="10.00">Playback Progress</text>
</g>
<!-- NowPlayingView&#45;&gt;ProgressBar -->
<g id="edge48" class="edge">
<title>NowPlayingView&#45;&gt;ProgressBar</title>
<path fill="none" stroke="#666666" d="M351.94,-347.22C348.26,-330.87 342.63,-305.91 338.26,-286.52"/>
<polygon fill="#666666" stroke="#666666" points="341.67,-285.76 336.06,-276.77 334.84,-287.3 341.67,-285.76"/>
</g>
<!-- QueueView&#45;&gt;QueueVM -->
<g id="edge62" class="edge">
<title>QueueView&#45;&gt;QueueVM</title>
<path fill="none" stroke="#666666" stroke-dasharray="1,5" d="M724.95,-340.02C716.5,-332.5 712.35,-324.07 719.8,-316.01 735.23,-299.31 800.39,-315.66 821.8,-308.01 840.16,-301.45 858.16,-288.92 871.57,-278.03"/>
<polygon fill="#666666" stroke="#666666" points="722.82,-342.8 732.92,-346 727.02,-337.2 722.82,-342.8"/>
<text xml:space="preserve" text-anchor="middle" x="757.3" y="-317.21" font-family="SF Pro" font-size="9.00">@ObservedObject</text>
</g>
<!-- LibraryView&#45;&gt;LibraryVM -->
<g id="edge63" class="edge">
<title>LibraryView&#45;&gt;LibraryVM</title>
<path fill="none" stroke="#666666" stroke-dasharray="1,5" d="M295.94,-344.59C297.57,-344.29 299.19,-344.01 300.8,-343.76 517.79,-309.34 576.64,-351.71 794.8,-325.76 816.42,-323.19 821.23,-318.96 842.8,-316.01 867.52,-312.63 931.59,-317.16 954.8,-308.01 971.28,-301.51 986.78,-288.98 998.16,-278.07"/>
<polygon fill="#666666" stroke="#666666" points="295.66,-341.08 286.59,-346.54 297.09,-347.93 295.66,-341.08"/>
<text xml:space="preserve" text-anchor="middle" x="880.3" y="-317.21" font-family="SF Pro" font-size="9.00">@ObservedObject</text>
</g>
<!-- ColorExtractor -->
<g id="node45" class="node">
<title>ColorExtractor</title>
<path fill="#9e9e9e" stroke="black" d="M460.05,-55.57C460.05,-55.57 397.55,-55.57 397.55,-55.57 391.55,-55.57 385.55,-49.57 385.55,-43.57 385.55,-43.57 385.55,-31.57 385.55,-31.57 385.55,-25.57 391.55,-19.57 397.55,-19.57 397.55,-19.57 460.05,-19.57 460.05,-19.57 466.05,-19.57 472.05,-25.57 472.05,-31.57 472.05,-31.57 472.05,-43.57 472.05,-43.57 472.05,-49.57 466.05,-55.57 460.05,-55.57"/>
<text xml:space="preserve" text-anchor="middle" x="428.8" y="-39.32" font-family="SF Pro" font-size="10.00">ColorExtractor</text>
<text xml:space="preserve" text-anchor="middle" x="428.8" y="-28.07" font-family="SF Pro" font-size="10.00">Dynamic Colors</text>
</g>
<!-- LibraryView&#45;&gt;ColorExtractor -->
<g id="edge69" class="edge">
<title>LibraryView&#45;&gt;ColorExtractor</title>
<path fill="none" stroke="#666666" d="M231.32,-347.08C235.74,-320.32 246.54,-267.72 267.8,-228.01 303.44,-161.43 365.58,-97.36 401.33,-63.48"/>
<polygon fill="#666666" stroke="#666666" points="403.39,-66.35 408.29,-56.96 398.6,-61.24 403.39,-66.35"/>
<text xml:space="preserve" text-anchor="middle" x="307.28" y="-209.46" font-family="SF Pro" font-size="9.00">extracts colors</text>
</g>
<!-- MiniPlayerBar&#45;&gt;PlayerControls -->
<g id="edge59" class="edge">
<title>MiniPlayerBar&#45;&gt;PlayerControls</title>
<path fill="none" stroke="#666666" d="M465.87,-347.22C464.03,-330.87 461.21,-305.91 459.03,-286.52"/>
<polygon fill="#666666" stroke="#666666" points="462.53,-286.35 457.93,-276.8 455.57,-287.13 462.53,-286.35"/>
</g>
<!-- MiniPlayerBar&#45;&gt;AlbumArt -->
<g id="edge58" class="edge">
<title>MiniPlayerBar&#45;&gt;AlbumArt</title>
<path fill="none" stroke="#666666" d="M483.87,-347.22C500.03,-330.02 525.14,-303.29 543.69,-283.55"/>
<polygon fill="#666666" stroke="#666666" points="546.11,-286.08 550.4,-276.4 541.01,-281.29 546.11,-286.08"/>
</g>
<!-- VolumeControl -->
<g id="node28" class="node">
<title>VolumeControl</title>
<path fill="lightgrey" stroke="black" d="M690.05,-167.13C690.05,-167.13 633.55,-167.13 633.55,-167.13 627.55,-167.13 621.55,-161.13 621.55,-155.13 621.55,-155.13 621.55,-143.13 621.55,-143.13 621.55,-137.13 627.55,-131.13 633.55,-131.13 633.55,-131.13 690.05,-131.13 690.05,-131.13 696.05,-131.13 702.05,-137.13 702.05,-143.13 702.05,-143.13 702.05,-155.13 702.05,-155.13 702.05,-161.13 696.05,-167.13 690.05,-167.13"/>
<text xml:space="preserve" text-anchor="middle" x="661.8" y="-150.88" font-family="SF Pro" font-size="10.00">VolumeControl</text>
<text xml:space="preserve" text-anchor="middle" x="661.8" y="-139.63" font-family="SF Pro" font-size="10.00">Volume Slider</text>
</g>
<!-- PlayerControls&#45;&gt;VolumeControl -->
<g id="edge60" class="edge">
<title>PlayerControls&#45;&gt;VolumeControl</title>
<path fill="none" stroke="#666666" d="M490.98,-238.53C499.04,-234.83 507.64,-231.12 515.8,-228.01 555.71,-212.81 570.75,-221.5 607.8,-200.26 619.07,-193.8 629.89,-184.58 638.85,-175.8"/>
<polygon fill="#666666" stroke="#666666" points="641.29,-178.31 645.77,-168.71 636.28,-173.42 641.29,-178.31"/>
</g>
<!-- AlbumArt&#45;&gt;ImageCacheService -->
<g id="edge70" class="edge">
<title>AlbumArt&#45;&gt;ImageCacheService</title>
<path fill="none" stroke="#666666" d="M611.12,-247.21C661.83,-236.86 748.23,-218.66 821.8,-200.26 860.02,-190.7 902.5,-178.79 936.37,-168.97"/>
<polygon fill="#666666" stroke="#666666" points="936.98,-172.44 945.6,-166.29 935.02,-165.72 936.98,-172.44"/>
<text xml:space="preserve" text-anchor="middle" x="818.19" y="-209.46" font-family="SF Pro" font-size="9.00">fetches artwork</text>
</g>
<!-- PlayerError&#45;&gt;ErrorBanner -->
<g id="edge74" class="edge">
<title>PlayerError&#45;&gt;ErrorBanner</title>
<path fill="none" stroke="#f44336" stroke-dasharray="1,5" d="M1728.27,-64.55C1737.04,-74.19 1748.26,-84.06 1760.8,-89.38 1774.97,-95.4 2027.07,-86.34 2037.8,-97.38 2040.82,-100.49 2040.5,-103.75 2037.8,-107.13 2003.03,-150.67 1603.94,-210.02 1548.8,-218.01 1531.83,-220.47 1408.54,-217.75 1394.8,-228.01 1357.7,-255.71 1396.45,-298.82 1358.8,-325.76 1325.17,-349.82 655.09,-334.48 614.8,-343.76 611.37,-344.55 607.88,-345.61 604.44,-346.85"/>
<polygon fill="#f44336" stroke="#f44336" points="1731.05,-62.42 1721.91,-57.06 1725.72,-66.95 1731.05,-62.42"/>
<text xml:space="preserve" text-anchor="middle" x="1626.92" y="-209.46" font-family="SF Pro" font-size="9.00">displays</text>
</g>
<!-- BlurredBackground -->
<g id="node47" class="node">
<title>BlurredBackground</title>
<path fill="#9e9e9e" stroke="black" d="M609.92,-55.57C609.92,-55.57 501.67,-55.57 501.67,-55.57 495.67,-55.57 489.67,-49.57 489.67,-43.57 489.67,-43.57 489.67,-31.57 489.67,-31.57 489.67,-25.57 495.67,-19.57 501.67,-19.57 501.67,-19.57 609.92,-19.57 609.92,-19.57 615.92,-19.57 621.92,-25.57 621.92,-31.57 621.92,-31.57 621.92,-43.57 621.92,-43.57 621.92,-49.57 615.92,-55.57 609.92,-55.57"/>
<text xml:space="preserve" text-anchor="middle" x="555.8" y="-39.32" font-family="SF Pro" font-size="10.00">BlurredArtworkBackground</text>
<text xml:space="preserve" text-anchor="middle" x="555.8" y="-28.07" font-family="SF Pro" font-size="10.00">Visual Effects</text>
</g>
<!-- BlurredBackground&#45;&gt;AlbumArt -->
<g id="edge71" class="edge">
<title>BlurredBackground&#45;&gt;AlbumArt</title>
<path fill="none" stroke="#666666" d="M556.77,-56.07C558.83,-93.41 563.68,-181.25 566.2,-227.01"/>
<polygon fill="#666666" stroke="#666666" points="562.71,-227.16 566.75,-236.96 569.7,-226.78 562.71,-227.16"/>
<text xml:space="preserve" text-anchor="middle" x="588.69" y="-145.46" font-family="SF Pro" font-size="9.00">creates blur</text>
</g>
<!-- legend -->
<g id="node51" class="node">
<title>legend</title>
<path fill="#ffffff" stroke="none" d="M2520.55,-708.58C2520.55,-708.58 2349.05,-708.58 2349.05,-708.58 2343.05,-708.58 2337.05,-702.58 2337.05,-696.58 2337.05,-696.58 2337.05,-571.33 2337.05,-571.33 2337.05,-565.33 2343.05,-559.33 2349.05,-559.33 2349.05,-559.33 2520.55,-559.33 2520.55,-559.33 2526.55,-559.33 2532.55,-565.33 2532.55,-571.33 2532.55,-571.33 2532.55,-696.58 2532.55,-696.58 2532.55,-702.58 2526.55,-708.58 2520.55,-708.58"/>
<text xml:space="preserve" text-anchor="start" x="2347.05" y="-694.08" font-family="SF Pro" font-weight="bold" font-size="10.00">Data Flow:</text>
<text xml:space="preserve" text-anchor="start" x="2347.05" y="-677.83" font-family="SF Pro" font-size="10.00">Solid: Direct dependency</text>
<text xml:space="preserve" text-anchor="start" x="2347.05" y="-662.58" font-family="SF Pro" font-size="10.00">Dashed: Weak/indirect dependency</text>
<text xml:space="preserve" text-anchor="start" x="2347.05" y="-647.33" font-family="SF Pro" font-size="10.00">Dotted: Reactive observation (Combine)</text>
<text xml:space="preserve" text-anchor="start" x="2347.05" y="-629.08" font-family="SF Pro" font-weight="bold" font-size="10.00">Architecture:</text>
<text xml:space="preserve" text-anchor="start" x="2347.05" y="-612.83" font-family="SF Pro" font-size="10.00">SwiftUI + MVVM pattern</text>
<text xml:space="preserve" text-anchor="start" x="2347.05" y="-597.58" font-family="SF Pro" font-size="10.00">Service layer with Combine publishers</text>
<text xml:space="preserve" text-anchor="start" x="2347.05" y="-582.33" font-family="SF Pro" font-size="10.00">Native macOS integration</text>
<text xml:space="preserve" text-anchor="start" x="2347.05" y="-567.08" font-family="SF Pro" font-size="10.00">WebSocket real&#45;time updates</text>
</g>
</g>
</svg>
